<?xml version="1.0" encoding="utf-8"?>
<!-- Generator: Adobe Illustrator 24.2.3, SVG Export Plug-In . SVG Version: 6.00 Build 0)  -->
<svg version="1.1" id="Layer_1" xmlns="http://www.w3.org/2000/svg" xmlns:xlink="http://www.w3.org/1999/xlink" x="0px" y="0px"
	 viewBox="0 0 150 60" style="enable-background:new 0 0 150 60;" xml:space="preserve">
<style type="text/css">
	.st0{fill-rule:evenodd;clip-rule:evenodd;fill:#FFFFFF;}
	.st1{fill:#FFFFFF;}
</style>
<g>
	<path id="path8_1_" class="st0" d="M86.75,40.64c-5.79,4.26-14.17,6.54-21.39,6.54c-10.12,0-19.24-3.74-26.13-9.97
		c-0.54-0.49-0.06-1.16,0.59-0.78c7.44,4.33,16.64,6.93,26.14,6.93c6.41,0,13.46-1.33,19.94-4.08
		C86.89,38.87,87.71,39.93,86.75,40.64"/>
	<path id="path10_1_" class="st0" d="M89.16,37.89c-0.74-0.94-4.89-0.45-6.75-0.23c-0.57,0.07-0.65-0.42-0.14-0.78
		c3.31-2.33,8.73-1.66,9.36-0.88c0.63,0.78-0.16,6.22-3.27,8.82c-0.48,0.4-0.93,0.19-0.72-0.34C88.33,42.74,89.9,38.84,89.16,37.89"
		/>
	<path id="path12_1_" class="st0" d="M82.54,20.45v-2.26c0-0.34,0.26-0.57,0.57-0.57h10.13c0.33,0,0.59,0.23,0.59,0.57v1.94
		c0,0.33-0.28,0.75-0.76,1.42l-5.25,7.49c1.95-0.05,4.01,0.24,5.78,1.24c0.4,0.23,0.51,0.55,0.54,0.88v2.41
		c0,0.33-0.36,0.72-0.75,0.52c-3.12-1.63-7.25-1.81-10.7,0.02c-0.35,0.19-0.72-0.19-0.72-0.52V31.3c0-0.37,0-1,0.37-1.56l6.08-8.72
		h-5.29C82.8,21.02,82.54,20.79,82.54,20.45"/>
	<path id="path14_1_" class="st0" d="M45.59,34.57h-3.08c-0.29-0.02-0.53-0.24-0.55-0.52V18.23c0-0.32,0.26-0.57,0.59-0.57h2.87
		c0.3,0.01,0.54,0.24,0.56,0.53v2.07h0.06c0.75-2,2.16-2.93,4.06-2.93c1.93,0,3.13,0.93,4,2.93c0.75-2,2.44-2.93,4.26-2.93
		c1.29,0,2.7,0.53,3.57,1.73c0.98,1.33,0.78,3.26,0.78,4.96l0,9.98c0,0.32-0.26,0.57-0.59,0.57h-3.08
		c-0.31-0.02-0.55-0.27-0.55-0.57v-8.38c0-0.67,0.06-2.33-0.09-2.96c-0.23-1.06-0.92-1.36-1.81-1.36c-0.75,0-1.53,0.5-1.84,1.3
		c-0.32,0.8-0.29,2.13-0.29,3.03V34c0,0.32-0.26,0.57-0.59,0.57h-3.08c-0.31-0.02-0.55-0.27-0.55-0.57l0-8.38
		c0-1.76,0.29-4.36-1.9-4.36c-2.21,0-2.13,2.53-2.13,4.36V34C46.19,34.31,45.92,34.57,45.59,34.57"/>
	<path id="path16_1_" class="st0" d="M102.54,17.33c4.57,0,7.05,3.93,7.05,8.92c0,4.82-2.73,8.65-7.05,8.65
		c-4.49,0-6.93-3.93-6.93-8.82C95.61,21.16,98.08,17.33,102.54,17.33 M102.57,20.56c-2.27,0-2.41,3.09-2.41,5.02
		c0,1.93-0.03,6.06,2.39,6.06c2.39,0,2.5-3.33,2.5-5.36c0-1.33-0.06-2.93-0.46-4.19C104.23,20.99,103.54,20.56,102.57,20.56"/>
	<path id="path18_1_" class="st0" d="M115.51,34.57h-3.07c-0.31-0.02-0.55-0.27-0.55-0.57l0-15.82c0.03-0.29,0.28-0.52,0.59-0.52
		h2.86c0.27,0.01,0.49,0.2,0.55,0.44v2.42h0.06c0.86-2.16,2.07-3.19,4.2-3.19c1.38,0,2.73,0.5,3.6,1.86
		c0.81,1.27,0.81,3.39,0.81,4.92v9.95c-0.03,0.28-0.29,0.5-0.59,0.5h-3.09c-0.28-0.02-0.52-0.23-0.55-0.5v-8.59
		c0-1.73,0.2-4.26-1.93-4.26c-0.75,0-1.44,0.5-1.78,1.27c-0.43,0.97-0.49,1.93-0.49,2.99V34C116.11,34.31,115.84,34.57,115.51,34.57
		"/>
	<path id="path28_1_" class="st0" d="M74.46,27.02c0,1.2,0.03,2.2-0.58,3.27c-0.49,0.87-1.27,1.4-2.13,1.4
		c-1.18,0-1.88-0.9-1.88-2.23c0-2.63,2.35-3.1,4.58-3.1V27.02 M77.57,34.52c-0.2,0.18-0.5,0.2-0.73,0.07
		c-1.02-0.85-1.21-1.24-1.77-2.05c-1.69,1.72-2.89,2.24-5.08,2.24c-2.6,0-4.61-1.6-4.61-4.8c0-2.5,1.35-4.2,3.28-5.04
		c1.67-0.74,4.01-0.87,5.79-1.07v-0.4c0-0.73,0.06-1.6-0.38-2.23c-0.37-0.57-1.09-0.8-1.73-0.8c-1.17,0-2.22,0.6-2.47,1.85
		c-0.05,0.28-0.26,0.55-0.54,0.56l-2.99-0.32c-0.25-0.06-0.53-0.26-0.46-0.65c0.68-3.62,3.96-4.71,6.89-4.71
		c1.5,0,3.46,0.4,4.64,1.53c1.5,1.4,1.36,3.27,1.36,5.3v4.8c0,1.44,0.6,2.08,1.16,2.86c0.2,0.28,0.24,0.61-0.01,0.82
		C79.31,33.01,78.19,33.99,77.57,34.52L77.57,34.52"/>
	<path id="path30_1_" class="st0" d="M34.07,27.02c0,1.2,0.03,2.2-0.58,3.27c-0.49,0.87-1.27,1.4-2.13,1.4
		c-1.18,0-1.87-0.9-1.87-2.23c0-2.63,2.35-3.1,4.58-3.1V27.02 M37.18,34.52c-0.2,0.18-0.5,0.2-0.73,0.07
		c-1.02-0.85-1.2-1.24-1.77-2.05c-1.69,1.72-2.89,2.24-5.08,2.24c-2.59,0-4.61-1.6-4.61-4.8c0-2.5,1.36-4.2,3.28-5.04
		c1.67-0.74,4.01-0.87,5.79-1.07v-0.4c0-0.73,0.06-1.6-0.37-2.23c-0.38-0.57-1.1-0.8-1.73-0.8c-1.17,0-2.22,0.6-2.48,1.85
		c-0.05,0.28-0.26,0.55-0.53,0.56l-2.99-0.32c-0.25-0.06-0.53-0.26-0.46-0.65c0.69-3.62,3.96-4.71,6.89-4.71
		c1.5,0,3.46,0.4,4.64,1.53c1.5,1.4,1.36,3.27,1.36,5.3v4.8c0,1.44,0.6,2.08,1.16,2.86c0.2,0.28,0.24,0.61-0.01,0.82
		C38.92,33.01,37.8,33.99,37.18,34.52L37.18,34.52"/>
</g>
</svg>
