<svg xmlns="http://www.w3.org/2000/svg" viewBox="0 0 799.81 188.3"><defs><style>.cls-1{fill:#0254a2;}.cls-2{fill:#ed3e47;}</style></defs><g id="Layer_2" data-name="Layer 2"><g id="Layer_1-2" data-name="Layer 1"><path class="cls-1" d="M0,92.69c1.31-.33,1.09-1.5,1.3-2.4C8.7,59.47,29.1,41.78,59.22,34.58a107.85,107.85,0,0,1,57.25,1.55c19.62,6,31.65,18.75,34.26,39.54.49,3.93.28,5.94-4.79,5.76-12.15-.44-24.32-.22-36.48-.09-2.88,0-4.07-.72-4.41-3.76-.89-7.8-5-12-12.82-13.8C71.46,59.05,53,72.22,49.06,94.58c-1.17,6.58-1.65,13.17.15,19.71C51.45,122.44,56.43,128,65,129.8c14.74,3.11,28.48-1.6,33.65-15.73.69-1.88,1.56-2.53,3.54-2.52,14.65.07,29.3,0,44.59,0a56.47,56.47,0,0,1-19.5,32.63C114.39,154.93,99,159.45,82.72,161.12c-15.15,1.54-30.31,1.5-45-3.21C18.94,151.89,6.2,140,1.5,120.41c-.24-1,0-2.45-1.5-2.86Z"/><path class="cls-2" d="M799.81,27c-3.07,5.73-3.7,12.19-5.42,18.31-.8,2.84-1.69,3.47-4.74,2.82Q734,36.39,677.5,29.34q-49.07-6.06-98.45-8.72C537.29,18.3,495.5,18,453.72,19.34A1299.27,1299.27,0,0,0,256.45,41.08c-18.95,3.56-37.81,7.58-56.5,12.33-1.82.46-3.72,1.52-5.95-.1a860,860,0,0,1,98.46-27.16A1125.93,1125.93,0,0,1,427.54,5.43C482.64.29,537.88-.94,593.17.65q62.42,1.82,124.38,9.66c25.91,3.28,51.72,7.24,77.34,12.35a42.37,42.37,0,0,0,4.92.39Z"/><path class="cls-1" d="M458.53,148.47c-3.12,12.38-6.07,23.71-8.79,35.08-.79,3.31-2,4.85-5.87,4.75-12.8-.32-25.61-.12-38.9-.12,4.19-16,8.27-31.63,12.36-47.25,5.88-22.38,11.89-44.73,17.54-67.17,1.06-4.2,2.88-5.34,7-5.22,10.15.31,20.31.1,30.46.11,6.54,0,6.54,0,4.53,6.13-.18.55-.43,1.09-.66,1.66,2.27.85,3.12-1,4.29-2,14.83-11.57,41.71-11.07,55.74,1.46,9.19,8.21,12.11,19,11.47,31C546.42,132,532,152,510.33,158.68c-10.89,3.34-22,3.4-33.06,1.24C470,158.51,464.11,154.66,458.53,148.47Zm45.81-40.84c0-9.17-3.34-14.07-10.66-15.66A19.92,19.92,0,0,0,472,100.81a35.41,35.41,0,0,0-5.48,22.27c.52,7,5.07,11.51,12,12.55,8.92,1.33,16.53-2.17,21.14-9.94A36,36,0,0,0,504.34,107.63Z"/><path class="cls-1" d="M352.18,159.17c3.5-13.06,6.86-25.64,10.24-38.21,1.15-4.31,2.41-8.59,3.48-12.93,2.37-9.57-2.32-14.88-12.39-14.14-10.4.77-16.23,5.5-19.25,16.41-4,14.34-7.83,28.72-11.27,43.19-1.1,4.61-3,5.95-7.67,5.81-12.29-.38-24.61-.13-37.44-.13,3.44-13.3,6.78-26.22,10.14-39.12,4.07-15.69,8.24-31.35,12.19-47.07.8-3.2,2-4.54,5.62-4.44,10.82.3,21.65.23,32.47,0,3.83-.07,5.67.45,3.84,4.78-.63,1.51-1.72,3.24-.79,5.44,14.91-12.34,32-14.86,50.26-10.75,16.47,3.7,23.63,14,19.91,30.25-4.48,19.48-10.06,38.7-15.14,58.05-.46,1.72-1,2.89-3.23,2.87C379.69,159.12,366.22,159.17,352.18,159.17Z"/><path class="cls-1" d="M219.71,151.3c-15.72,10.23-32.81,12.16-50.72,8-12.79-3-19.46-10-20.49-20.63-1.12-11.42,4.84-21.36,16.3-26.45,14.29-6.36,29.63-7,44.95-7.6,5.83-.21,11.66-.32,17.3-2,4.24-1.21,7.92-3.34,7.65-8.43s-4.28-6.48-8.38-6.93c-8.26-.91-16.53-1.29-21.43,7.49-.82,1.48-2.13,1.37-3.44,1.37-11.5,0-23-.07-34.48,0-3.6,0-3.21-1.39-2.26-3.92,4.53-12,13.63-19.21,25.63-22.28a130.41,130.41,0,0,1,67.59.58C274,75,278.5,83.55,275.4,99.76c-3,15.46-7.83,30.43-11.64,45.67-.91,3.62-1.3,7.19-.23,10.76.62,2.07.52,3-2,3q-18.48-.1-37,0a3.09,3.09,0,0,1-3.48-2.68C220.62,154.81,220.94,152.89,219.71,151.3Zm8.36-31.86c-7.18,2.25-14.06,3-21,3.51a33.34,33.34,0,0,0-7.8,1.45c-5.16,1.69-7.94,5.37-7.27,9.36.81,4.91,4.83,6,8.85,6.58C215.88,142.48,225.4,135.34,228.07,119.44Z"/><path class="cls-1" d="M620.39,150.89c-16.29,10.77-33.54,12.52-51.61,8.38-11.67-2.68-18.92-9.84-19.93-18.93-1.4-12.52,3.67-22.11,15-27.62,12.7-6.16,26.55-7,40.33-7.9,6.46-.42,13-.19,19.4-1.22,7.58-1.21,11.7-4.72,11.21-9.64-.43-4.37-4.77-7-12.14-7-7-.08-13.8.61-17.62,7.73-.8,1.5-2,1.56-3.32,1.56-11.65,0-23.31-.07-35,.06-3.33,0-3-1.31-2.11-3.59,3.87-10.25,11.09-17.08,21.22-21C600,66.11,614.82,66,629.65,66.44c11.15.33,22.27,1.29,32.74,5.59,11.36,4.67,15.47,11.83,13.66,23.87-.71,4.73-1.61,9.46-2.79,14.1-2.89,11.38-6,22.7-9,34-1.08,4-1.94,8.08-.56,12.2.69,2,.39,3-2.08,3q-18.48-.12-37,0a3,3,0,0,1-3.38-2.74C620.88,154.74,620.69,153,620.39,150.89Zm7.55-31.55c-8.07,3-16.1,3-24,4a16.34,16.34,0,0,0-8.7,3.29c-2.34,1.9-3.64,4.38-3.13,7.4s2.76,4.67,5.64,5.63C612.72,144.58,626.32,135.79,627.94,119.34Z"/><path class="cls-1" d="M740.24,80.61c1.76.25,2.3-1,3.11-1.74,11.76-10.61,25.53-14.29,41.12-12.05,2.94.42,4,1.38,3.14,4.48-2.23,7.79-4.39,15.6-6.24,23.48-.72,3.09-2,3.49-4.81,2.78-6.52-1.67-13.17-1.61-19.83-1-11.24,1-19,6.7-22.86,17.18-4.76,12.9-7.38,26.42-10.83,39.7-1.13,4.35-2.59,6.12-7.49,5.91-11.13-.47-22.3-.24-33.46-.09-3,0-4.13-.38-3.25-3.74q11.05-42,21.8-84c.58-2.29,1.58-2.86,3.73-2.85,12,.07,24,.1,36,0,2.76,0,3,1.12,2.4,3.28C741.91,74.68,741.13,77.5,740.24,80.61Z"/></g></g></svg>