<svg xmlns="http://www.w3.org/2000/svg" viewBox="0 0 600 132.89"><defs><style>.cls-1{fill:#fdcb00;}.cls-2{fill:#d40029;}.cls-3{fill:#fee78d;}</style></defs><title>DHL</title><g id="Layer_2" data-name="Layer 2"><g id="Layer_1-2" data-name="Layer 1"><g id="iHMU1v.tif"><path class="cls-1" d="M.05,132.3V108.85c1,0,2-.11,3-.11q31.49,0,63,0c1,0,2.09.38,2.84-.61,1.23-1.66,2.43-3.35,3.89-5.36H.05V97.59l5.38,0q34.44,0,68.87,0c1,0,2.06.41,2.81-.63l4-5.41H.05V86.34H82.79c.89,0,1.9.31,2.59-.64,1.21-1.68,2.44-3.35,4-5.41H86.07l-86,0q0-39,0-78.09C0,.4.4,0,2.16,0Q300.78.08,599.41,0c0,1.1-.07,2.19-.07,3.28q0,38.46-.05,76.91c-.94,0-1.87,0-2.81,0q-31.43,0-62.84,0c-.83,0-1.83-.36-2.44.41a30.18,30.18,0,0,0-4,5.68h72v5.08c-24.22,0-48.43.06-72.65,0-2.53,0-4.36.49-5.51,2.81-.5,1-2.12,2-1.67,2.86.56,1.09,2.26.42,3.44.42q38.21.07,76.4.08l.58.45v4.69l-83.22,0c-.76,0-1.58-.2-2.15.59-1.21,1.67-2.44,3.33-3.72,5.08a6.22,6.22,0,0,0,3,.34h82.52c1,0,2,.07,3,.11,0,7.11-.08,14.22,0,21.33,0,1.61-.41,2.34-2.09,2.13a20.29,20.29,0,0,0-2.34,0ZM340.21,24a14.55,14.55,0,0,0-1.51-.18c-17.27,0-34.54,0-51.81,0a3,3,0,0,0-2.65,1.52Q267.13,48.68,250,72c-.35.47-1,.86-.61,1.82h2.23q64.59,0,129.18,0a4.25,4.25,0,0,0,3.88-1.93q16.79-23,33.67-45.93c.43-.58,1.19-1.06,1-2.15h-2.08c-16.65,0-33.29,0-49.94,0a4.19,4.19,0,0,0-3.85,2c-5.81,8-11.79,16-17.55,24-1.41,2-2.83,2.93-5.34,2.77-3.82-.24-7.66-.06-11.49-.06h-9.79ZM86.36,49.84H90q49.23,0,98.45,0a26.77,26.77,0,0,1,4.2.25c2.42.38,2.86,1.37,1.71,3.58a18.13,18.13,0,0,1-1.4,2.16c-2.83,3.93-5.73,7.81-8.51,11.77-1,1.41-2.9,2.79-1.89,4.7s3.29,1.48,5.12,1.49c13.67,0,27.34,0,41,0a3.41,3.41,0,0,0,3.12-1.55c3.64-5.08,7.38-10.09,11.08-15.12a16.14,16.14,0,0,0,2.92-6.33c1.74-8.35-2.36-17.12-10.39-22.08-6.19-3.83-13-4.93-20.2-4.92q-53.91,0-107.82,0a3.58,3.58,0,0,0-3.27,1.71c-4.2,5.83-8.48,11.61-12.73,17.4Zm-7.81,58.9h3.32c29.71,0,59.41-.07,89.11,0a64.14,64.14,0,0,0,43.6-16.09,66.16,66.16,0,0,0,11.23-12.39h-63c-1,0-2,0-3.05-.07-3.69-.34-4.42-1.84-2.28-4.82,3.05-4.26,6.21-8.43,9.25-12.69,1.06-1.48,2.95-3,2-4.93s-3.28-1.4-5.1-1.4c-14.85,0-29.7,0-44.55,0a3.55,3.55,0,0,0-3.29,1.63c-7.26,10-14.6,19.91-21.91,29.86ZM521.16,80.51a7.1,7.1,0,0,0-1-.22l-122.37,0a2.59,2.59,0,0,0-2.33,1.22c-1.85,2.61-3.82,5.14-5.6,7.81-3.78,5.67-2.55,11.47,3.18,15.16a27.07,27.07,0,0,0,12.87,3.9c10.92.83,21.87.32,32.8.36,19.85.09,39.7,0,59.55,0,1.07,0,2.11.16,2.92-1C507.74,98.76,514.36,89.77,521.16,80.51Zm-119.49-7c.64.51,1.36.3,2,.3,17.9,0,35.8,0,53.69,0a3.59,3.59,0,0,0,3.27-1.72Q477.54,49.06,494.5,26c.43-.59,1.16-1.07,1-2.06-.54,0-1.07-.1-1.61-.1-18.05,0-36.11,0-54.16-.05a3.61,3.61,0,0,0-3.21,1.82q-16.83,23-33.72,45.91C402.36,72.14,401.69,72.64,401.67,73.51ZM298.77,80.4c-.78-.07-1.09-.12-1.39-.12-17.27,0-34.54,0-51.81,0a3.39,3.39,0,0,0-3,1.77q-9,12.3-18,24.57c-.42.58-1.18,1.06-1,2a4,4,0,0,0,.69.14q26.14,0,52.28,0a3,3,0,0,0,2.6-1.61c3.73-5.11,7.49-10.2,11.23-15.31C293.1,88.15,295.81,84.45,298.77,80.4Zm79.45.14a6.14,6.14,0,0,0-.88-.24q-26.26,0-52.52,0a2.78,2.78,0,0,0-2.43,1.46q-9.15,12.48-18.3,25c-.39.53-1.24,1-.83,1.76s1.29.3,1.95.3c16.73,0,33.45,0,50.18,0a3.79,3.79,0,0,0,3.48-1.78c4.71-6.52,9.51-13,14.27-19.47C374.79,85.27,376.42,83,378.22,80.54Z"/><path class="cls-2" d="M599.39,108.85c-1,0-2-.11-3-.11H513.83a6.22,6.22,0,0,1-3-.34c1.28-1.75,2.51-3.41,3.72-5.08.57-.79,1.39-.59,2.15-.59l83.22,0v6.1Z"/><path class="cls-2" d="M.05,80.24l86,0h3.26c-1.51,2.06-2.74,3.73-4,5.41-.69,1-1.7.63-2.59.64H.05Z"/><path class="cls-2" d="M.05,91.5H81.11l-4,5.41c-.75,1-1.86.63-2.81.63q-34.44,0-68.87,0l-5.38,0Z"/><path class="cls-2" d="M.05,102.75H72.79c-1.46,2-2.66,3.7-3.89,5.36-.75,1-1.87.61-2.84.61q-31.48,0-63,0c-1,0-2,.07-3,.11Z"/><path class="cls-3" d="M599.39,108.85h.49c0,7.5,0,15,0,22.51,0,1.17-.26,1.63-1.44,1.41a4.09,4.09,0,0,0-.7,0q-297.81,0-595.61,0c-.69,0-1.59.54-2.11-.44H594.94a20.29,20.29,0,0,1,2.34,0c1.68.21,2.1-.52,2.09-2.13C599.31,123.07,599.37,116,599.39,108.85Z"/><path class="cls-3" d="M599.88,98.06l-.58-.45a31.59,31.59,0,0,0,0-6.15V86.38a29.4,29.4,0,0,0,0-6.15q0-38.45.05-76.91c0-1.09,0-2.18.07-3.28,1,.52.44,1.43.44,2.11Q599.9,50.11,599.88,98.06Z"/><path class="cls-2" d="M340.21,24l-20.93,28.5h9.79c3.83,0,7.67-.18,11.49.06,2.51.16,3.93-.79,5.34-2.77,5.76-8.08,11.74-16,17.55-24a4.19,4.19,0,0,1,3.85-2c16.65.07,33.29,0,49.94,0h2.08c.2,1.09-.56,1.57-1,2.15Q401.5,49,384.66,71.93a4.25,4.25,0,0,1-3.88,1.93q-64.59-.08-129.18,0h-2.23c-.36-1,.26-1.35.61-1.82q17.11-23.34,34.26-46.66a3,3,0,0,1,2.65-1.52c17.27.05,34.54,0,51.81,0A14.55,14.55,0,0,1,340.21,24Z"/><path class="cls-2" d="M86.36,49.84l5.07-6.91c4.25-5.79,8.53-11.57,12.73-17.4a3.58,3.58,0,0,1,3.27-1.71q53.91.06,107.82,0c7.15,0,14,1.09,20.2,4.92,8,5,12.13,13.73,10.39,22.08a16.14,16.14,0,0,1-2.92,6.33c-3.7,5-7.44,10-11.08,15.12a3.41,3.41,0,0,1-3.12,1.55c-13.68,0-27.35,0-41,0-1.83,0-4.11.44-5.12-1.49s.9-3.29,1.89-4.7c2.78-4,5.68-7.84,8.51-11.77a18.13,18.13,0,0,0,1.4-2.16c1.15-2.21.71-3.2-1.71-3.58a26.77,26.77,0,0,0-4.2-.25q-49.23,0-98.45,0Z"/><path class="cls-2" d="M78.55,108.74,93.92,87.8c7.31-10,14.65-19.88,21.91-29.86a3.55,3.55,0,0,1,3.29-1.63c14.85,0,29.7,0,44.55,0,1.82,0,4.16-.53,5.1,1.4s-1,3.45-2,4.93c-3,4.26-6.2,8.43-9.25,12.69-2.14,3-1.41,4.48,2.28,4.82,1,.1,2,.07,3.05.07h63a66.16,66.16,0,0,1-11.23,12.39A64.14,64.14,0,0,1,171,108.76c-29.7-.09-59.4,0-89.11,0Z"/><path class="cls-2" d="M521.16,80.51c-6.8,9.26-13.42,18.25-20,27.27-.81,1.11-1.85,1-2.92,1-19.85,0-39.7.07-59.55,0-10.93,0-21.88.47-32.8-.36a27.07,27.07,0,0,1-12.87-3.9c-5.73-3.69-7-9.49-3.18-15.16,1.78-2.67,3.75-5.2,5.6-7.81a2.59,2.59,0,0,1,2.33-1.22l122.37,0A7.1,7.1,0,0,1,521.16,80.51Z"/><path class="cls-2" d="M401.67,73.51c0-.87.69-1.37,1.13-2q16.86-23,33.72-45.91a3.61,3.61,0,0,1,3.21-1.82c18,.06,36.11,0,54.16.05.54,0,1.07.06,1.61.1.16,1-.57,1.47-1,2.06q-16.92,23.07-33.84,46.11a3.59,3.59,0,0,1-3.27,1.72c-17.89,0-35.79,0-53.69,0C403,73.81,402.31,74,401.67,73.51Z"/><path class="cls-2" d="M298.77,80.4c-3,4-5.67,7.75-8.39,11.45-3.74,5.11-7.5,10.2-11.23,15.31a3,3,0,0,1-2.6,1.61q-26.13-.08-52.28,0a4,4,0,0,1-.69-.14c-.2-.94.56-1.42,1-2q9-12.3,18-24.57a3.39,3.39,0,0,1,3-1.77c17.27.06,34.54,0,51.81,0C297.68,80.28,298,80.33,298.77,80.4Z"/><path class="cls-2" d="M378.22,80.54c-1.8,2.47-3.43,4.73-5.08,7-4.76,6.48-9.56,13-14.27,19.47a3.79,3.79,0,0,1-3.48,1.78c-16.73-.06-33.45,0-50.18,0-.66,0-1.57.36-1.95-.3s.44-1.23.83-1.76q9.14-12.5,18.3-25a2.78,2.78,0,0,1,2.43-1.46q26.26.07,52.52,0A6.14,6.14,0,0,1,378.22,80.54Z"/><path class="cls-2" d="M599.29,91.46a31.59,31.59,0,0,1,0,6.15q-38.19,0-76.4-.08c-1.18,0-2.88.67-3.44-.42-.45-.87,1.17-1.83,1.67-2.86,1.15-2.32,3-2.82,5.51-2.81C550.86,91.52,575.07,91.47,599.29,91.46Z"/><path class="cls-2" d="M599.29,80.23a29.4,29.4,0,0,1,0,6.15h-72a30.18,30.18,0,0,1,4-5.68c.61-.77,1.61-.41,2.44-.41q31.43,0,62.84,0C597.42,80.27,598.35,80.25,599.29,80.23Z"/></g></g></g></svg>