<?xml version="1.0" encoding="utf-8"?>
<!-- Generator: Adobe Illustrator 24.2.3, SVG Export Plug-In . SVG Version: 6.00 Build 0)  -->
<svg version="1.1" id="Layer_1" xmlns="http://www.w3.org/2000/svg" xmlns:xlink="http://www.w3.org/1999/xlink" x="0px" y="0px"
	 viewBox="0 0 150 60" style="enable-background:new 0 0 150 60;" xml:space="preserve">
<style type="text/css">
	.st0{fill-rule:evenodd;clip-rule:evenodd;fill:#FFFFFF;}
	.st1{fill:#FFFFFF;}
</style>
<g>
	<path id="e_1_" class="st1" d="M47.25,21.55c-5.28,0-9.68,2.24-9.68,9c0,5.35,2.96,8.73,9.82,8.73c8.07,0,8.59-5.32,8.59-5.32
		h-3.91c0,0-0.84,2.86-4.92,2.86c-3.32,0-5.71-2.24-5.71-5.39h14.95v-1.97C56.38,26.34,54.41,21.55,47.25,21.55L47.25,21.55z
		 M47.11,24.07c3.16,0,5.32,1.94,5.32,4.84H41.52C41.52,25.83,44.33,24.07,47.11,24.07z"/>
	<path id="b_1_" class="st1" d="M56.38,15v20.88c0,1.19-0.08,2.85-0.08,2.85h3.73c0,0,0.13-1.2,0.13-2.29c0,0,1.84,2.88,6.86,2.88
		c5.28,0,8.86-3.66,8.86-8.91c0-4.88-3.29-8.81-8.85-8.81c-5.21,0-6.83,2.81-6.83,2.81V15L56.38,15z M66.06,24.18
		c3.58,0,5.86,2.66,5.86,6.23c0,3.83-2.63,6.33-5.84,6.33c-3.83,0-5.89-2.99-5.89-6.3C60.2,27.36,62.05,24.18,66.06,24.18z"/>
	<path id="a_1_" class="st1" d="M85.15,21.55c-7.94,0-8.45,4.35-8.45,5.05h3.95c0,0,0.21-2.54,4.23-2.54c2.61,0,4.64,1.2,4.64,3.49
		v0.82h-4.64c-6.15,0-9.41,1.8-9.41,5.45c0,3.6,3.01,5.55,7.07,5.55c5.54,0,7.32-3.06,7.32-3.06c0,1.22,0.09,2.42,0.09,2.42h3.52
		c0,0-0.14-1.49-0.14-2.44v-8.22C93.33,22.68,88.99,21.55,85.15,21.55L85.15,21.55z M89.51,30.82v1.09c0,1.42-0.88,4.96-6.05,4.96
		c-2.83,0-4.04-1.41-4.04-3.05C79.42,30.84,83.51,30.82,89.51,30.82L89.51,30.82z"/>
	<path id="y_1_" class="st1" d="M91.2,22.23h4.45l6.38,12.79l6.37-12.79h4.03L100.83,45h-4.23l3.35-6.35L91.2,22.23z"/>
</g>
</svg>
