<?xml version="1.0" encoding="utf-8"?>
<!-- Generator: Adobe Illustrator 24.2.3, SVG Export Plug-In . SVG Version: 6.00 Build 0)  -->
<svg version="1.1" id="Layer_1" xmlns="http://www.w3.org/2000/svg" xmlns:xlink="http://www.w3.org/1999/xlink" x="0px" y="0px"
	 viewBox="0 0 150 60" style="enable-background:new 0 0 150 60;" xml:space="preserve">
<style type="text/css">
	.st0{fill-rule:evenodd;clip-rule:evenodd;fill:#FFFFFF;}
	.st1{fill:#FFFFFF;}
</style>
<g>
	<path class="st1" d="M50.16,25.83v-8.48c0-0.31,0.03-0.5,0.57-0.5h7.19c1.26,0,1.95,1.07,2.45,3.08l0.41,1.6H62
		C62.21,16.98,62.4,15,62.4,15s-3.08,0.35-4.9,0.35h-9.2l-4.93-0.16v1.32l1.66,0.31c1.16,0.22,1.44,0.47,1.54,1.54
		c0,0,0.09,3.14,0.09,8.32c0,5.18-0.09,8.29-0.09,8.29c0,0.94-0.38,1.29-1.54,1.51l-1.66,0.31v1.32l4.93-0.16h8.23
		c1.85,0,6.16,0.16,6.16,0.16c0.09-1.13,0.72-6.25,0.82-6.81h-1.16l-1.22,2.8c-0.97,2.2-2.39,2.36-3.96,2.36h-4.68
		c-1.57,0-2.32-0.63-2.32-1.98v-7.16c0,0,3.42,0,4.62,0.09c0.88,0.06,1.41,0.31,1.7,1.54l0.38,1.63h1.35l-0.09-4.11l0.19-4.15h-1.35
		l-0.44,1.82c-0.28,1.19-0.47,1.41-1.7,1.54c-1.38,0.16-4.65,0.13-4.65,0.13L50.16,25.83L50.16,25.83L50.16,25.83L50.16,25.83z
		 M68.78,18.23c-0.44,1.95-0.88,3.45-2.42,4.46c-0.94,0.63-1.88,0.85-2.26,0.88v1.19h2.79v9.64c0,2.7,1.79,4.02,4.18,4.02
		c1.85,0,3.77-0.79,4.43-2.42l-0.66-0.85c-0.31,0.53-1.32,1.32-2.57,1.32c-1.38,0-2.14-0.94-2.14-3.33v-8.51l4.65,0.35l0.25-2.14
		l-4.9,0.19v-4.77L68.78,18.23L68.78,18.23z M78.7,33.06l-1.19,0.03c0.06,0.69,0.09,1.57,0.09,2.39c0,0.85-0.03,1.63-0.09,2.01
		c0,0,2.39,0.88,4.81,0.88c3.27,0,5.87-1.57,5.87-4.65c0-5.28-7.91-4.49-7.91-8.04c0-1.48,1.32-2.04,2.76-2.04
		c1.13,0,2.07,0.41,2.26,1.01L86.08,27l1.16-0.06c0.09-1.26,0.16-2.7,0.35-3.86c-1.01-0.44-3.11-0.69-4.43-0.69
		c-3.08,0-5.56,1.35-5.56,4.37c0,5.24,7.73,4.18,7.73,8.04c0,1.38-0.85,2.35-2.76,2.35c-1.76,0-2.64-0.91-2.98-1.82L78.7,33.06
		L78.7,33.06z M97.63,36.69c-1.82,5.08-4.04,6.39-6.05,6.39c-0.85,0-1.25-0.38-1.38-0.97l-0.47-2.45l-1.32,0.06
		c-0.25,1.44-0.5,3.04-0.85,4.36c0.78,0.59,2.1,0.91,3.13,0.91c2.16,0,5.45-0.28,8.46-7.43l5.05-11.91
		c0.41-0.97,0.56-1.07,1.76-1.54l0.66-0.25v-1.1l-2.98,0.16l-3.2-0.16v1.1l0.81,0.25c0.81,0.25,1.19,0.56,1.19,1.13
		c0,0.28-0.09,0.56-0.25,1c-0.47,1.19-3.39,8.28-4.17,9.78l0.78-0.28c-1.38-3.42-3.48-9.12-3.79-10.09
		c-0.06-0.19-0.09-0.34-0.09-0.5c0-0.5,0.34-0.91,1.1-1.07l1.03-0.22v-1.1l-4.3,0.16l-3.42-0.16v1.1l0.56,0.19
		c0.78,0.25,0.97,0.47,1.44,1.57c2.6,5.96,3.82,9.22,5.49,13.48L97.63,36.69L97.63,36.69z"/>
</g>
</svg>
