<svg xmlns="http://www.w3.org/2000/svg" viewBox="0 0 600 166.21"><defs><style>.cls-1{fill:#4d148c;}.cls-2{fill:#ff6601;}</style></defs><title>FedEx</title><g id="Layer_2" data-name="Layer 2"><g id="Layer_1-2" data-name="Layer 1"><g id="DSFhLq.tif"><path class="cls-1" d="M277.66,0h37.47c0,.52,0,1,0,1.56V160.38c-.47,0-1,.06-1.43.06h-34.9c-1.3,0-1.21.14-1.21-1.25v-7.92a7.85,7.85,0,0,0,0-.84c0-.33-.26-.4-.48-.19a5.43,5.43,0,0,0-.66.84,36.06,36.06,0,0,1-22.2,14.41c-1.32.28-2.66.48-4,.71H244a54.21,54.21,0,0,1-5.83-.69,49,49,0,0,1-25.61-12.77c-10-9.37-15.77-21-17.86-34.49-.28-1.78.07-1.49-1.72-1.49H121.69c-.28,0-.56,0-.84,0-.55-.05-.7.24-.66.72.1,1.08.18,2.15.37,3.22a22.18,22.18,0,0,0,16.84,17.46,28.91,28.91,0,0,0,11.68-.24,14.4,14.4,0,0,0,7.62-4.29,22.35,22.35,0,0,0,2.67-3.23,1.92,1.92,0,0,1,1.86-1c11.33,0,22.65,0,34,0a2.58,2.58,0,0,1,1.17.09c.09.39-.15.7-.28,1a69.1,69.1,0,0,1-5.58,10.6,50.72,50.72,0,0,1-27.8,21.53,68.62,68.62,0,0,1-31,2.35,56.84,56.84,0,0,1-26.94-11.22,53.16,53.16,0,0,1-17.2-22.52,58.09,58.09,0,0,1-4.1-17.81A63.26,63.26,0,0,1,84.26,98c.28-1.6.61-3.2.92-4.81A2.41,2.41,0,0,0,83.86,93H44.24c-1.66,0-1.44-.14-1.44,1.51q0,32.17,0,64.36c0,.32,0,.64,0,1,0,.48-.2.64-.64.61s-.64,0-1,0H0V0H94.88c0,.44.06.88.06,1.31q0,16.52,0,33c0,1.7.19,1.46-1.46,1.46h-49c-.32,0-.65,0-1,0-.6,0-.79.23-.74.78,0,.24,0,.48,0,.72V57.24c0,1.54-.2,1.38,1.43,1.38H89c.32,0,.64,0,1,0,.48,0,.64.21.61.66,0,.27,0,.56,0,.84V78.25a1.78,1.78,0,0,0,.12,1,.75.75,0,0,0,.16-.12c.11-.17.23-.33.33-.5A51.69,51.69,0,0,1,116.6,57a63,63,0,0,1,20.17-4.47,68,68,0,0,1,25.71,3,50,50,0,0,1,23.05,15.39A57.43,57.43,0,0,1,196,89.83a6.8,6.8,0,0,0,.61,1.62,2.09,2.09,0,0,0,.46-1A57.81,57.81,0,0,1,204.64,75a50.51,50.51,0,0,1,51-21.37,35.3,35.3,0,0,1,20.73,11.17c.31.33.57,1,1.06.8s.21-.86.21-1.32q0-31.39,0-62.8C277.62,1,277.65.48,277.66,0ZM232.38,111.42a28.14,28.14,0,0,0,5.94,16.35c6.58,8.58,16.76,9.92,24.88,6.69,5.16-2.06,8.49-6,10.66-11a33.23,33.23,0,0,0,2.61-12.6,39.54,39.54,0,0,0-2.62-16.11c-3.1-7.62-8.45-12.43-16.88-13.21a19.85,19.85,0,0,0-16,5.23,25.46,25.46,0,0,0-6.54,10.49C233,101.22,232.42,105.32,232.38,111.42Zm-110.8-18h40.15a13.16,13.16,0,0,0-.78-3.23,19.05,19.05,0,0,0-8.1-10.51,20.75,20.75,0,0,0-9.77-3,19.85,19.85,0,0,0-10.48,2c-5.89,3-9.33,7.85-11,14.09A.74.74,0,0,0,121.58,93.41Z"/><path class="cls-2" d="M404.24,0c0,.48,0,1,0,1.44v33c0,1.48.14,1.34-1.37,1.34H354.32c-1.64,0-1.46-.17-1.46,1.49q0,9.9,0,19.81v.36c0,1.21-.1,1.17,1.18,1.17h48q24.32,0,48.63,0a2.6,2.6,0,0,1,2.15,1Q463.19,71,473.58,82.43a2.7,2.7,0,0,0,.93.83c.63-.71,1.27-1.42,1.9-2.14q9.48-10.84,18.94-21.71a2.06,2.06,0,0,1,1.74-.8q21.92,0,43.83,0a1.8,1.8,0,0,1,1,.12,2.65,2.65,0,0,1-.77,1Q525,77.94,508.84,96.1l-11,12.38a3.08,3.08,0,0,1-.24.27c-.46.39-.44.72,0,1.18,1.63,1.77,3.21,3.57,4.81,5.36l39.46,44.13c.23.26.45.54.68.81-.29.34-.63.21-.93.21q-22.94,0-45.87,0a2,2,0,0,1-1.63-.77q-10.16-11.44-20.36-22.86a5.19,5.19,0,0,0-1.25-1.22q-1.87,2.1-3.74,4.21-8.7,9.85-17.39,19.72a2.4,2.4,0,0,1-2,.92q-21.81,0-43.6,0h-1.14c-.11-.45.17-.6.34-.79l37-41.53,6.86-7.71c.76-.86.77-.86,0-1.72q-8.42-9.47-16.84-18.92-13.32-15-26.66-30l-.87-.94a2.43,2.43,0,0,0-.16,1.33q0,15.67,0,31.34c0,1.62.23,1.47-1.48,1.47H354.33c-1.66,0-1.47-.16-1.47,1.48q0,14.42,0,28.82c0,1.42-.1,1.31,1.28,1.31h48.51c1.79,0,1.55-.18,1.55,1.51q0,16.58,0,33.14c0,1.17,0,1.17-1.15,1.17H316.12c-.32,0-.64,0-1-.06V1.56c0-.52,0-1,0-1.56Z"/><path class="cls-2" d="M600,147.72c-.44.45-.22,1.05-.35,1.58A18.37,18.37,0,0,1,593,159.69a19.83,19.83,0,0,1-25-.68,18,18,0,0,1-6.24-11.82,18.86,18.86,0,0,1,2.75-12.75,18.53,18.53,0,0,1,11.65-8.24,19.48,19.48,0,0,1,20.38,7.22,16,16,0,0,1,3.24,7.89.45.45,0,0,0,.21.4Zm-34.7-2.85c0,.45,0,1,.1,1.65.57,5.25,2.92,9.43,7.56,12.12a15.51,15.51,0,0,0,10.42,1.84,14.42,14.42,0,0,0,11.48-8.43,17.17,17.17,0,0,0,.69-13,14.44,14.44,0,0,0-7-8.48,15.79,15.79,0,0,0-9.28-1.81,14.73,14.73,0,0,0-10.13,5.1A16.39,16.39,0,0,0,565.3,144.87Z"/><path class="cls-2" d="M585,144.23c1.9.58,2.45,2,2.74,3.45.38,1.92.64,3.87,1,5.8.13.78.36,1.54.56,2.37a22.22,22.22,0,0,1-3.35.1c-.41,0-.52-.27-.63-.6a20.37,20.37,0,0,1-.65-3.29c-.17-1.11-.3-2.22-.54-3.31-.5-2.34-1.55-3.18-3.92-3.22h-2.52c-.85,0-.87,0-.88.86,0,2.68,0,5.37,0,8.05,0,.32,0,.64,0,1s-.2.57-.59.55h-.12c-.83,0-1.88.33-2.45-.15s-.22-1.58-.22-2.4c0-6.24,0-12.49,0-18.73V134c0-1,0-1.07,1.07-1,3,0,6-.14,9,.12a5.71,5.71,0,0,1,.83.11,5.87,5.87,0,0,1,4.3,8.13A4.93,4.93,0,0,1,585,144.23Zm-8.21-5c0,.84,0,1.68,0,2.52,0,.64.24.84.84.82,1.24,0,2.48,0,3.72,0a5.43,5.43,0,0,0,1.87-.34,3,3,0,0,0,1.95-3.34,2.74,2.74,0,0,0-2.34-2.65,4.36,4.36,0,0,0-1.06-.18c-1.44,0-2.87,0-4.31,0-.56,0-.67.26-.66.74C576.78,137.53,576.77,138.37,576.77,139.21Z"/></g></g></g></svg>