<svg id="Layer_1" data-name="Layer 1" xmlns="http://www.w3.org/2000/svg" viewBox="0 0 208.6 65"><defs><style>.cls-1{fill:#061ab1;}.cls-2{fill:#fefeff;}.cls-3{fill:#fed001;}</style></defs><rect class="cls-1" x="2.61" y="2.29" width="203.38" height="60.42"/><path class="cls-2" d="M74.5,46.65c-.07.07-.1.08-.11.1a10.19,10.19,0,0,1-3.67,3.93A15.8,15.8,0,0,1,64.65,53a19.85,19.85,0,0,1-5.81.07,17.78,17.78,0,0,1-6-1.74A16.65,16.65,0,0,1,45.41,44a19.55,19.55,0,0,1-1.92-6.1,28.87,28.87,0,0,1-.27-6.3,20.78,20.78,0,0,1,3.1-10,19.94,19.94,0,0,1,7.92-7.1,24.36,24.36,0,0,1,7.16-2.29,34.91,34.91,0,0,1,7.15-.39,39.67,39.67,0,0,1,5.84.73,25.67,25.67,0,0,1,3.56.87c.53.19.53.19.53.75V24.21c-.12.07-.2,0-.28,0a49.42,49.42,0,0,0-6.65-1.58,22.53,22.53,0,0,0-5.91-.24,13.25,13.25,0,0,0-2.86.61,8.27,8.27,0,0,0-5.57,5.81,15.26,15.26,0,0,0-.54,4.89,14,14,0,0,0,.54,3.63,7.45,7.45,0,0,0,1.84,3.24,7,7,0,0,0,3.7,1.87,9.42,9.42,0,0,0,2.31.21,6.82,6.82,0,0,0,4.65-1.94,2.8,2.8,0,0,0,.49-.62.77.77,0,0,0-.39,0H63.06c-.26,0-.26,0-.26-.28v-8.4c0-.25,0-.26.25-.26H82.34c.51,0,.43,0,.43.43V52.25c0,.36,0,.34-.34.34H74.62c-.12,0-.17-.05-.17-.17,0-.29,0-.59,0-.88,0-1.57,0-3.13,0-4.7Z"/><path class="cls-2" d="M146.47,23.75l-1.91-.44a64.77,64.77,0,0,0-6.47-1.11,29,29,0,0,0-4.37-.27,8,8,0,0,0-2.12.34,3.18,3.18,0,0,0-1,.52,1.66,1.66,0,0,0-.62.95,1.37,1.37,0,0,0,.59,1.48,4.8,4.8,0,0,0,1.62.67c1.88.45,3.76.88,5.63,1.34a19.43,19.43,0,0,1,5.15,2,10.67,10.67,0,0,1,4.13,4.06,11.4,11.4,0,0,1,1.31,4.18,16.39,16.39,0,0,1,0,3.77,11.93,11.93,0,0,1-4.61,8.39,15.84,15.84,0,0,1-5.8,2.83,25,25,0,0,1-5.37.78,51.51,51.51,0,0,1-6.21-.15A45.15,45.15,0,0,1,119.13,52l-1.06-.29a.27.27,0,0,1-.23-.33.4.4,0,0,0,0-.11V40.69c.12-.08.21,0,.29,0a56.08,56.08,0,0,0,7,1.58,38.15,38.15,0,0,0,4.52.53,14.77,14.77,0,0,0,3.87-.18,4.33,4.33,0,0,0,1.47-.57,1.64,1.64,0,0,0,.79-1.23,1.24,1.24,0,0,0-.59-1.27,4.22,4.22,0,0,0-1.14-.47c-1.2-.33-2.43-.56-3.64-.84a45.85,45.85,0,0,1-4.61-1.19,17.15,17.15,0,0,1-3.74-1.79,10,10,0,0,1-4.51-6.65,14.92,14.92,0,0,1,.49-7.84,12.3,12.3,0,0,1,6.28-7,17.45,17.45,0,0,1,5.08-1.63,28.41,28.41,0,0,1,6.83-.3,63.41,63.41,0,0,1,9.4,1.28c.21.05.43.11.65.15s.24.09.21.26a1.08,1.08,0,0,0,0,.18v9.68A.88.88,0,0,1,146.47,23.75Z"/><path class="cls-2" d="M86.84,32.48V12.88c0-.57,0-.48.46-.48H99.42c.3,0,.3,0,.3.31a1.92,1.92,0,0,1,0,.24q0,14.37,0,28.72c0,.53-.06.45.44.45h13.18c.49,0,.42,0,.42.44,0,3.21,0,6.43,0,9.64,0,.44,0,.39-.41.39H87.23c-.41,0-.39.07-.39-.4Z"/><path class="cls-3" d="M158.63,39.43a6.83,6.83,0,1,1-6.86,6.83A6.81,6.81,0,0,1,158.63,39.43Z"/></svg>