<svg xmlns="http://www.w3.org/2000/svg" viewBox="0 0 600 82.46"><defs><style>.cls-1{fill:#ef3829;}.cls-2{fill:#00529c;}</style></defs><title>Purolator</title><g id="Layer_2" data-name="Layer 2"><g id="Layer_1-2" data-name="Layer 1"><path class="cls-1" d="M104.83,80c5.68-12.18,11.27-24.21,16.89-36.22,6.19-13.24,12.48-26.42,18.55-39.71,1.33-2.93,3-4.24,6.28-4.06,10.33.55,20.81,0,31,1.47s13.35,8,10.73,18c-4.76,18.11-19.55,30.95-38.2,30.47-11.34-.29-17.54,3.43-20.23,14a20.69,20.69,0,0,1-1.63,3.52C122.32,80.13,119.72,81.57,104.83,80Zm37.93-43.44c14.43,4.62,27.79-7.35,27.7-17.5,0-2.25-2.56-6.07-4.41-6.38-4-.67-10.55-1.08-12.08,1.14C149.24,20.7,146.37,28.85,142.76,36.57Z"/><path class="cls-2" d="M56.2,80.41C61.89,68.22,67.11,57,72.35,45.85,78.86,31.94,85.46,18.07,91.84,4.1,93.17,1.2,94.77-.06,98.06,0c8.33.22,16.66.08,25.68.08-.78,2.09-1.23,3.63-1.9,5.06C111.53,27.11,101.08,49,90.91,71c-3,6.5-7.37,9.82-14.67,9.49C70,80.18,63.65,80.41,56.2,80.41Z"/><path class="cls-1" d="M207.4,80.44c.68-2.54,1.14-4.28,2-7.39-2.5,1.63-4.05,2.68-5.63,3.68a30.24,30.24,0,0,1-19.61,4.77c-6.27-.6-10-4.81-8.81-11a64.67,64.67,0,0,1,4.33-13.69c4.64-10.51,9.78-20.78,14.48-31.25,1.4-3.13,3.09-4.54,6.65-4.23,4.05.36,8.15.08,13.05.08-4.89,10.49-9.58,20.47-14.19,30.49-1.24,2.68-2.7,5.38-3.24,8.23-.4,2.12-.27,5.49,1,6.49,1.62,1.25,5.42,1.71,7,.63,3.94-2.77,8.2-6,10.43-10.08,5.57-10.23,10.2-21,15-31.63,1.41-3.17,3.15-4.49,6.67-4.2,4.05.33,8.15.07,13,.07-4.9,10.5-9.61,20.48-14.23,30.51-3.88,8.4-7.53,16.91-11.56,25.24a6.33,6.33,0,0,1-4.22,3.1C215.63,80.74,211.71,80.44,207.4,80.44Z"/><path class="cls-1" d="M497.62,81.6c-14.92,0-21-7.83-17.2-22.21,5.91-22.39,26.43-39.21,47.7-39.08,12.67.07,18.75,6.44,16.67,19C541.45,59.44,521.89,81.83,497.62,81.6Zm28.64-40.14c1.11-8.21-3.25-10.67-9.22-8.33a13.08,13.08,0,0,0-3.42,1.78c-8.46,6.75-13.38,15.72-15.37,26.17-.44,2.32.56,6.51,2.12,7.25a10.49,10.49,0,0,0,8.7-.38A37.17,37.17,0,0,0,526.26,41.46Z"/><path class="cls-1" d="M301.74,81.6c-15.25.08-21.33-7.75-17.46-22.51,5.65-21.6,26.35-38.73,46.89-38.79,13.55,0,19.52,6.2,17.39,19.34C345.46,58.83,326.15,81.74,301.74,81.6Zm-.51-18.41c.25,1.86,1.8,5,3.47,5.5,2.68.73,6.52.45,8.79-1,9.1-6,14-15.15,16.22-25.52.6-2.75-.3-7.49-2.18-8.67-2-1.29-6.64-.44-9.06,1.12C308.52,41,299.58,50.94,301.23,63.19Z"/><path class="cls-1" d="M404.77,80.43c.23-2,.42-3.55.45-3.8-6.75,1.63-13.56,4.15-20.53,4.73-8.81.75-13-5.29-10.32-13.68,4.95-15.57,17.44-21.7,32-24.92a41.71,41.71,0,0,1,9.36-1.1c3.16.05,5.68-1.17,5.15-4.08-.36-2-3.19-4.68-4.91-5.1-4.54-1.13-12.38,1.38-18.56,2.28a30.63,30.63,0,0,0-4,1.33c2.24-6.61,3.9-12.68,11.52-13.32,8.75-.74,17.6-1.81,26.3-1.21,6.13.43,8.62,4.48,7.85,10.68a54.7,54.7,0,0,1-4.06,14.27c-4.39,10.4-9.18,20.63-14,30.84a5.77,5.77,0,0,1-3.81,2.94C413.22,80.68,409.13,80.43,404.77,80.43Zm10.08-28.25c-8.6-.08-16.08,1.23-20.5,8.89-1.11,1.93-1.66,5.52-.59,7s4.65,1.81,6.84,1.32C409.39,67.39,412,60,414.85,52.18Z"/><path class="cls-1" d="M468.73,68.65C465.54,81,457,85.33,445.08,80.57c-4.71-1.89-6.86-5.44-5.08-10.14,3.39-9,7.31-17.73,11.05-26.56,1.36-3.2,2.87-6.35,4.53-10l-7.42-.68c1.26-2.79,2.58-5.37,3.59-8.06s2.85-3.62,5.86-3.87a8.16,8.16,0,0,0,5.62-3.72c6.13-11.69,8.44-13.06,22.69-11.45-2.15,4.94-4.21,9.71-6.59,15.18h10.72C488.19,25.3,487.13,29,485,31.78c-1,1.37-4.17,1.66-6.31,1.55-3.85-.2-6,.94-7.56,4.73-2.54,6.34-5.75,12.41-8.63,18.62C458.14,66,458.89,67.43,468.73,68.65Z"/><path class="cls-1" d="M393.6,6.15,376.9,41.79q-6,12.81-12,25.62c-6,12.81-8.25,14-23.52,12.65,3.38-7.35,6.64-14.52,10-21.67q9.53-20.34,19.11-40.66C376,5.93,379.27,4.25,393.6,6.15Z"/><path class="cls-1" d="M277.16,21.44l-3.77,10.45c7.7-6.64,14.15-12.56,24.46-11.35l-7.23,15.77c-11.87-1.08-19.43,4.68-24.23,14.82-2.69,5.68-5.32,11.4-8,17.09-5.64,12-9,13.69-23.1,11.63,5.36-11.47,10.69-22.82,16-34.2,3-6.54,6.24-13,8.9-19.72,1.36-3.42,3-5,6.82-4.56C270.08,21.75,273.26,21.44,277.16,21.44Z"/><path class="cls-1" d="M537.38,80.17c7.55-16.23,15-31.94,22.19-47.75,5.15-11.26,5-11.31,17.6-11,.54,0,1.09.13,2,.24-1,3-1.93,5.84-3.28,10,7.42-6.35,13.73-12.26,24.16-11.08-2.47,5.47-4.78,10.55-7.15,15.79-12.19-1.19-19.72,4.85-24.46,15.29-2.22,4.89-4.55,9.74-6.8,14.61C555.13,80.24,553.61,81.15,537.38,80.17Z"/><path class="cls-1" d="M31.61,80.44l32-68.33c.39-.84.79-1.68,1.19-2.51,3.94-8.28,7.41-10.16,17.28-9a35.2,35.2,0,0,1-1.32,4c-11.2,24-22.49,47.9-33.61,71.91-1.35,2.93-2.94,4.35-6.25,4C38.14,80.23,35.35,80.44,31.61,80.44Z"/><path class="cls-2" d="M23.59,74.11C15.7,66,8.42,58.56,1.32,51a5.72,5.72,0,0,1-1.25-4.4c.17-.86,2.23-1.88,3.45-1.9,10.93-.15,21.86-.09,33.83-.09C32.74,54.47,28.49,63.6,23.59,74.11Z"/></g></g></svg>