<?xml version="1.0" encoding="utf-8"?>
<!-- Generator: Adobe Illustrator 24.2.3, SVG Export Plug-In . SVG Version: 6.00 Build 0)  -->
<svg version="1.1" id="Layer_1" xmlns="http://www.w3.org/2000/svg" xmlns:xlink="http://www.w3.org/1999/xlink" x="0px" y="0px"
	 viewBox="0 0 150 60" style="enable-background:new 0 0 150 60;" xml:space="preserve">
<style type="text/css">
	.st0{fill-rule:evenodd;clip-rule:evenodd;fill:#FFFFFF;}
	.st1{fill:#FFFFFF;}
</style>
<path class="st1" d="M44.89,20.44c-0.11-0.01-2.21-0.04-2.21-0.04s-1.76-1.71-1.93-1.88c-0.06-0.06-0.15-0.1-0.24-0.11l0,26.1
	l7.87-1.96c0,0-3.21-21.72-3.23-21.87C45.13,20.53,45,20.45,44.89,20.44z"/>
<path class="st1" d="M45.15,20.68c-0.02-0.15-0.15-0.23-0.26-0.24c-0.11-0.01-2.21-0.04-2.21-0.04s-1.76-1.71-1.93-1.88
	c-0.17-0.17-0.51-0.12-0.64-0.08c0,0-0.33,0.1-0.88,0.27c-0.09-0.3-0.23-0.67-0.42-1.04c-0.63-1.19-1.54-1.82-2.65-1.83c0,0,0,0,0,0
	c-0.08,0-0.15,0.01-0.23,0.01c-0.03-0.04-0.07-0.08-0.1-0.12c-0.48-0.52-1.1-0.77-1.84-0.74c-1.43,0.04-2.85,1.07-4.01,2.91
	c-0.81,1.29-1.43,2.91-1.61,4.17c-1.64,0.51-2.79,0.86-2.81,0.87c-0.83,0.26-0.85,0.29-0.96,1.07c-0.08,0.59-2.25,17.35-2.25,17.35
	l18.17,3.14l7.87-1.96C48.39,42.55,45.17,20.83,45.15,20.68z M35.96,19.72c-0.95,0.29-1.99,0.62-3.03,0.94
	c0.29-1.12,0.85-2.24,1.53-2.97c0.25-0.27,0.61-0.58,1.03-0.75C35.88,17.77,35.97,18.93,35.96,19.72z M34.01,15.95
	c0.34-0.01,0.62,0.07,0.86,0.23c-0.39,0.2-0.76,0.49-1.11,0.86c-0.91,0.97-1.6,2.49-1.88,3.95c-0.87,0.27-1.71,0.53-2.49,0.77
	C29.88,19.46,31.8,16.02,34.01,15.95z M31.23,29.03c0.1,1.53,4.12,1.86,4.35,5.45c0.18,2.82-1.5,4.75-3.91,4.9
	c-2.89,0.18-4.49-1.52-4.49-1.52l0.61-2.61c0,0,1.6,1.21,2.89,1.13c0.84-0.05,1.14-0.74,1.11-1.22c-0.13-2-3.4-1.88-3.61-5.16
	c-0.17-2.76,1.64-5.56,5.64-5.81c1.54-0.1,2.33,0.29,2.33,0.29l-0.91,3.42c0,0-1.02-0.46-2.23-0.39
	C31.23,27.64,31.21,28.75,31.23,29.03z M36.91,19.43c-0.01-0.72-0.1-1.73-0.43-2.6c1.08,0.21,1.62,1.43,1.84,2.16
	C37.9,19.12,37.43,19.27,36.91,19.43z"/>
<path class="st1" d="M58.75,31.65c-0.91-0.49-1.37-0.91-1.37-1.47c0-0.72,0.65-1.19,1.66-1.19c1.17,0,2.22,0.49,2.22,0.49l0.83-2.53
	c0,0-0.76-0.6-3-0.6c-3.12,0-5.28,1.78-5.28,4.29c0,1.42,1.01,2.51,2.35,3.28c1.09,0.62,1.47,1.06,1.47,1.71
	c0,0.67-0.54,1.22-1.55,1.22c-1.5,0-2.92-0.78-2.92-0.78l-0.88,2.53c0,0,1.31,0.88,3.52,0.88c3.21,0,5.51-1.58,5.51-4.42
	C61.31,33.54,60.15,32.46,58.75,31.65z"/>
<path class="st1" d="M71.53,26.33c-1.58,0-2.82,0.75-3.78,1.89l-0.05-0.03l1.37-7.16H65.5l-3.47,18.23h3.57l1.19-6.23
	c0.47-2.35,1.68-3.8,2.82-3.8c0.8,0,1.11,0.54,1.11,1.32c0,0.49-0.05,1.09-0.16,1.58l-1.34,7.14h3.57l1.4-7.37
	c0.16-0.78,0.26-1.71,0.26-2.33C74.45,27.54,73.39,26.33,71.53,26.33z"/>
<path class="st1" d="M82.52,26.33c-4.29,0-7.14,3.88-7.14,8.2c0,2.77,1.71,4.99,4.91,4.99c4.22,0,7.06-3.78,7.06-8.2
	C87.36,28.76,85.86,26.33,82.52,26.33z M80.76,36.78c-1.22,0-1.73-1.03-1.73-2.33c0-2.04,1.06-5.38,3-5.38
	c1.27,0,1.68,1.09,1.68,2.15C83.71,33.41,82.65,36.78,80.76,36.78z"/>
<path class="st1" d="M96.49,26.33c-2.41,0-3.78,2.12-3.78,2.12h-0.05l0.21-1.91h-3.16c-0.15,1.29-0.44,3.26-0.72,4.73l-2.48,13.06
	h3.57l0.98-5.28h0.08c0,0,0.73,0.47,2.1,0.47c4.19,0,6.93-4.29,6.93-8.64C100.16,28.47,99.1,26.33,96.49,26.33z M93.08,36.83
	c-0.93,0-1.47-0.52-1.47-0.52l0.6-3.34c0.41-2.22,1.58-3.7,2.82-3.7c1.09,0,1.42,1.01,1.42,1.97
	C96.44,33.54,95.07,36.83,93.08,36.83z"/>
<path class="st1" d="M105.26,21.2c-1.14,0-2.04,0.91-2.04,2.07c0,1.06,0.67,1.78,1.68,1.78h0.05c1.11,0,2.07-0.75,2.1-2.07
	C107.04,21.96,106.34,21.2,105.26,21.2z"/>
<path class="st1" d="M100.27,39.26h3.57l2.43-12.65h-3.6L100.27,39.26z"/>
<path class="st1" d="M115.35,26.59h-2.48l0.13-0.6c0.21-1.22,0.93-2.3,2.12-2.3c0.63,0,1.14,0.18,1.14,0.18l0.7-2.79
	c0,0-0.62-0.31-1.94-0.31c-1.27,0-2.53,0.36-3.49,1.19c-1.22,1.03-1.78,2.53-2.07,4.03l-0.1,0.6h-1.66l-0.52,2.69h1.66l-1.89,9.98
	h3.57l1.89-9.98h2.46L115.35,26.59z"/>
<path class="st1" d="M123.93,26.61c0,0-2.23,5.62-3.23,8.69h-0.05c-0.07-0.99-0.88-8.69-0.88-8.69h-3.75l2.15,11.61
	c0.05,0.26,0.03,0.41-0.08,0.6c-0.41,0.8-1.11,1.58-1.94,2.15c-0.67,0.49-1.42,0.8-2.02,1.01l0.98,3.03
	c0.72-0.16,2.22-0.75,3.49-1.94c1.63-1.53,3.13-3.88,4.68-7.09l4.37-9.36L123.93,26.61L123.93,26.61z"/>
</svg>
