<svg id="Layer_1" data-name="Layer 1" xmlns="http://www.w3.org/2000/svg" viewBox="0 0 552.1 188.3"><defs><style>.cls-1{fill:#f8b70a;}.cls-2{fill:#301506;}</style></defs><g id="Layer_2" data-name="Layer 2"><g id="Layer_1-2" data-name="Layer 1-2"><path class="cls-1" d="M355.56,17.59v97.47c-.21.11-.17.32-.18.5a64.6,64.6,0,0,1-1.1,8.86,57.46,57.46,0,0,1-14.4,28.42A66.22,66.22,0,0,1,324,164.93c-15.28,8.78-31.3,16.11-47.39,23.26a1.37,1.37,0,0,1-1.23-.08q-9.27-4.06-18.43-8.36c-10.1-4.77-20.13-9.71-29.79-15.37a62.22,62.22,0,0,1-17.6-14.65A59.17,59.17,0,0,1,196.88,117a7.6,7.6,0,0,0-.34-2.72V17.59a150.5,150.5,0,0,1,15.62-7C229.77,4,248.16,1,266.93.18c.32,0,.69.15.95-.18h16.34c.2.3.51.17.78.18a191.85,191.85,0,0,1,33.51,4.13A144,144,0,0,1,355.56,17.59Zm-7.28,50.72h0V20.51c0-.82-.21-1-1-1.1-5.92-.5-11.85-.91-17.78-1.11A239,239,0,0,0,286,20.19,172.56,172.56,0,0,0,256.35,27a142.85,142.85,0,0,0-51.7,29.82,2,2,0,0,0-.77,1.67v51.81a64.34,64.34,0,0,0,1.27,13.2,49.06,49.06,0,0,0,18.34,29.76,107,107,0,0,0,15.26,9.3c11.92,6.38,24.18,12.06,36.55,17.59a1.84,1.84,0,0,0,1.68,0q10.95-4.85,21.74-10.06a273.35,273.35,0,0,0,25.2-13.51,50.65,50.65,0,0,0,15.7-15A52.82,52.82,0,0,0,348.24,112C348.28,97.47,348.28,82.86,348.28,68.31Z"/><path class="cls-2" d="M348.28,68.31c0,14.55.08,29.12,0,43.67a52.89,52.89,0,0,1-8.61,29.53,50.82,50.82,0,0,1-15.75,15A275.42,275.42,0,0,1,298.72,170c-7.19,3.49-14.4,6.82-21.74,10.06a1.84,1.84,0,0,1-1.68,0c-12.35-5.54-24.61-11.21-36.55-17.59a107.08,107.08,0,0,1-15.26-9.31,49.08,49.08,0,0,1-18.32-29.71,64.33,64.33,0,0,1-1.26-13.2V58.46a2,2,0,0,1,.76-1.67A142.85,142.85,0,0,1,256.35,27,172.38,172.38,0,0,1,286,20.17a239.11,239.11,0,0,1,43.45-1.89c5.94.24,11.87.65,17.79,1.1.81.07,1,.27,1,1.11V68.28Zm-88.77,41.92v43.86c0,.83.19,1.11,1.11,1.11,3.91,0,7.83-.06,11.74,0,.88,0,1.1-.27,1.05-1.11v-27c0-.72.12-.87.87-.69a23.24,23.24,0,0,0,10.78-.07c6.48-1.58,10.93-5.69,14-11.4a40.46,40.46,0,0,0,4.43-15.81,54.56,54.56,0,0,0-1.22-18.93,27.17,27.17,0,0,0-7.75-13.83,22.92,22.92,0,0,0-15.63-5.79,34.47,34.47,0,0,0-18.38,4.3,1.62,1.62,0,0,0-1,1.62Q259.52,88.35,259.51,110.23Zm-7.07-18.3V62.86c0-.72-.15-1-.92-1H239.79c-1,0-1.21.26-1.21,1.22V113a1.31,1.31,0,0,1-.82,1.37,13.07,13.07,0,0,1-5.54,1.17,6.42,6.42,0,0,1-6.84-5,18.19,18.19,0,0,1-.62-5.45V63c0-.92-.24-1.1-1.1-1.1H211.93c-.76,0-1,.15-1,1v43.2a32,32,0,0,0,.75,6.76c1.59,7,5.64,11.75,12.77,13.57a33.76,33.76,0,0,0,11.29.62,35.64,35.64,0,0,0,15.73-4.75,1.66,1.66,0,0,0,.92-1.63Q252.42,106.28,252.44,91.93Zm55,18.37v11.58a1.55,1.55,0,0,0,.93,1.6A29.52,29.52,0,0,0,325.85,127a19,19,0,0,0,12-5.88c6.15-6.52,7.55-20.94-2.06-28.6a83.1,83.1,0,0,0-9.68-6.4,18.61,18.61,0,0,1-4.36-3.33c-2.66-2.86-2.72-9.46,3.32-11.07a11.6,11.6,0,0,1,4.19-.35,18.58,18.58,0,0,1,10.48,4.77l.87.75V66.06a1.82,1.82,0,0,0-1-1.79A23.86,23.86,0,0,0,322,61,18.41,18.41,0,0,0,309.2,69.7c-3.46,5.65-4,17,4.5,23.66a83.39,83.39,0,0,0,8,5.44,20.41,20.41,0,0,1,5.41,4.29c3.67,4.49,1.72,11.07-3.71,12.42a12.12,12.12,0,0,1-5.68,0,24,24,0,0,1-10.25-5.23Z"/><path class="cls-1" d="M259.51,110.23V66.47a1.63,1.63,0,0,1,.93-1.62,34.6,34.6,0,0,1,18.39-4.3,22.92,22.92,0,0,1,15.6,5.8,27.19,27.19,0,0,1,7.76,13.82A54.82,54.82,0,0,1,303.4,99.1,40.46,40.46,0,0,1,299,114.91c-3.08,5.71-7.53,9.82-14,11.4a23.24,23.24,0,0,1-10.78.07c-.75-.18-.88,0-.87.7v27c0,.83-.17,1.11-1.05,1.11-3.91-.06-7.83,0-11.74,0-.89,0-1.11-.28-1.11-1.11Q259.52,132.16,259.51,110.23Zm13.83-16.42V114c0,.44-.13.88.55,1.1,4.64,1.47,9.83.67,12.68-4.65A22.7,22.7,0,0,0,288.9,103a69.76,69.76,0,0,0,.17-18.54,21.3,21.3,0,0,0-2.46-8.28,8.45,8.45,0,0,0-5.75-4.3,13.23,13.23,0,0,0-6.58.34,1.1,1.1,0,0,0-1,1.21s0,.06,0,.08C273.35,80.28,273.34,87.05,273.34,93.81Z"/><path class="cls-1" d="M252.44,91.93v28.71a1.65,1.65,0,0,1-.92,1.63A35.6,35.6,0,0,1,235.8,127a33.73,33.73,0,0,1-11.29-.62c-7.13-1.82-11.19-6.55-12.77-13.57a31.43,31.43,0,0,1-.76-6.77V62.87c0-.81.24-1,1-1H223.7c.9,0,1.11.2,1.11,1.11V105.1a17.57,17.57,0,0,0,.62,5.45,6.41,6.41,0,0,0,6.83,5,13.07,13.07,0,0,0,5.54-1.17,1.31,1.31,0,0,0,.83-1.35V63.13c0-1,.22-1.24,1.22-1.21h11.73c.76,0,.92.23.92.95Q252.43,77.38,252.44,91.93Z"/><path class="cls-1" d="M307.47,110.28a24.09,24.09,0,0,0,10.29,5.22,12.08,12.08,0,0,0,5.67,0c5.44-1.37,7.39-7.93,3.71-12.43a20.32,20.32,0,0,0-5.44-4.27,81.38,81.38,0,0,1-8.07-5.44c-8.48-6.65-8-18-4.51-23.66A18.4,18.4,0,0,1,322,60.92a23.82,23.82,0,0,1,17.62,3.32,1.82,1.82,0,0,1,1,1.78c-.07,3.25,0,6.5,0,9.73v1.11l-.88-.76a18.56,18.56,0,0,0-10.48-4.76,11.78,11.78,0,0,0-4.18.34c-6,1.59-5.93,8.18-3.33,11.08a18.56,18.56,0,0,0,4.37,3.32,86,86,0,0,1,9.67,6.39c9.6,7.67,8.2,22.09,2.06,28.6a18.92,18.92,0,0,1-12,5.88,29.47,29.47,0,0,1-17.39-3.48,1.55,1.55,0,0,1-.93-1.6V110.28Z"/><path class="cls-2" d="M273.34,93.81V73.51a1.11,1.11,0,0,1,.9-1.28h.08a13.11,13.11,0,0,1,6.58-.34,8.45,8.45,0,0,1,5.75,4.3,21.28,21.28,0,0,1,2.45,8.28,69.42,69.42,0,0,1-.2,18.55,22.7,22.7,0,0,1-2.33,7.45c-2.85,5.32-8,6.12-12.68,4.65-.68-.21-.55-.65-.55-1.1Q273.33,103.9,273.34,93.81Z"/></g></g></svg>