<svg id="Layer_1" data-name="Layer 1" xmlns="http://www.w3.org/2000/svg" viewBox="0 0 300 120"><defs><style>.cls-1{fill:#fff;}</style></defs><path class="cls-1" d="M230.73,27.13a.31.31,0,0,0,.27.1,3.51,3.51,0,0,1,1.91.72,2.06,2.06,0,0,1,.64.64,1.85,1.85,0,0,1,.27,1c0,.45-.09.91-.09,1.36s-.09.73-.09,1.09c-.09.73-.09,1.37-.18,2.1s-.09,1.36-.18,2-.09,1.36-.19,2.09-.09,1.36-.18,2c0,.36-.09.63-.09,1-.09.54-.09,1.09-.18,1.63a1.11,1.11,0,0,1-.36.73,2.55,2.55,0,0,1-1.37.73,3.65,3.65,0,0,1-1.72-.09,1.87,1.87,0,0,1-.91-.55,1.08,1.08,0,0,1-.37-.73c0-.45-.09-1-.09-1.45-.09-.64-.09-1.36-.18-2,0-.36-.09-.64-.09-1-.09-.73-.09-1.36-.18-2.09s-.09-1.27-.18-2c0-.37-.1-.64-.1-1-.09-.73-.09-1.37-.18-2.09,0-.46-.09-.91-.09-1.46a2,2,0,0,1,.82-1.82,3.94,3.94,0,0,1,2-.81.31.31,0,0,0,.27-.1Z"/><path class="cls-1" d="M154,92.77l-.09-.09a.68.68,0,0,1-.18-.36V78.77a.43.43,0,0,1,.45-.45,1.5,1.5,0,0,1,1.18.45,3.48,3.48,0,0,1,.28.55c0,.09,0,.09.09.18s.18-.09.27-.18a3.72,3.72,0,0,1,2.09-1,4.11,4.11,0,0,1,4.27,1.82,4.67,4.67,0,0,1,.91,2.36,6,6,0,0,1-.27,2.55,4.39,4.39,0,0,1-3.36,3,5.61,5.61,0,0,1-1.73.09,8.72,8.72,0,0,1-1.55-.37c-.09.09,0,.19,0,.37v4.18c0,.18-.09.27-.18.45l-.09.1A15.27,15.27,0,0,0,154,92.77Zm2.27-9.27V85c0,.18.09.27.28.36a3.13,3.13,0,0,0,1.81.36,2.13,2.13,0,0,0,1.91-1.09,2.9,2.9,0,0,0-.09-3.09,2.23,2.23,0,0,0-1.27-.91,1.89,1.89,0,0,0-1,0,2.26,2.26,0,0,0-1.55,1,1.32,1.32,0,0,0-.18.55A6.91,6.91,0,0,1,156.27,83.5Z"/><path class="cls-1" d="M258.28,67h0A2.38,2.38,0,0,1,257,68.32a1.94,1.94,0,0,1-2.18-.73,1.89,1.89,0,0,1,1-2.91,2,2,0,0,1,2.28.82.69.69,0,0,1,.18.45c0,.1,0,.1.09.1A2.77,2.77,0,0,0,258.28,67Zm-1.91-2.09a1.18,1.18,0,0,0-.55.09,1.61,1.61,0,0,0-.54,2.64,1.47,1.47,0,0,0,2.45-.73,1,1,0,0,0,0-.72A1.27,1.27,0,0,0,256.37,64.86Z"/><path class="cls-1" d="M41.63,37.86c.09-.09.18,0,.27,0h6c.28,0,.28,0,.37.28.27,1.54.63,3.18.91,4.72.36,1.73.63,3.37,1,5.09.36,2,.72,4,1.18,6,.27,1.55.54,3.19.82,4.73l.27,1.91a.33.33,0,0,0,.09.27c0-.09.09-.18.09-.36.27-1.64.64-3.27,1-4.91s.82-3.54,1.18-5.27c.64-2.73,1.28-5.55,1.91-8.28.28-1.27.64-2.54.91-3.81V38c0-.09.09-.09.18-.09h6.37c0,.09.09.19.09.28.36,1.81.82,3.72,1.18,5.54s.82,3.82,1.18,5.64l1.09,5.18c.28,1.27.46,2.55.73,3.82a14.43,14.43,0,0,0,.36,2.09v.18a.09.09,0,0,0,.1-.09c.09-.73.27-1.45.36-2.27.18-1.27.45-2.46.73-3.73s.54-2.54.72-3.82.55-2.73.82-4.18c.37-1.82.73-3.64,1.09-5.36.18-1.09.46-2.09.64-3.19v-.18a.09.09,0,0,1,.09-.09h6.18c.09.09,0,.18,0,.27-.54,2.1-1.09,4.28-1.63,6.37-1.19,4.63-2.46,9.27-3.64,13.91C73.54,61.23,72.72,64.14,72,67c0,.1-.09.19-.09.28a.2.2,0,0,1-.19.18,4.52,4.52,0,0,1-1.09.18,8.85,8.85,0,0,1-1.54.09,5.22,5.22,0,0,1-1.64-.27,3.87,3.87,0,0,1-2.18-1.64,6.77,6.77,0,0,1-.91-2.27c-.27-1.27-.55-2.45-.82-3.73-.45-1.91-.82-3.82-1.27-5.72s-.82-4-1.18-6.1a27.39,27.39,0,0,1-.37-2.81V45h0c0,.09,0,.09-.09.19-.18,1.09-.36,2.27-.63,3.36-.37,1.55-.73,3.18-1.1,4.73-.63,2.72-1.36,5.54-2,8.27-.45,1.91-.9,3.73-1.36,5.64v.18c0,.09-.09.09-.18.09s-.36.09-.55.09a19.11,19.11,0,0,1-2.27.18,7,7,0,0,1-1.36-.18A3.72,3.72,0,0,1,49,66a4.87,4.87,0,0,1-.82-1.54,14.89,14.89,0,0,1-.55-2c-.73-3-1.45-5.91-2.18-8.91-.82-3.45-1.64-6.91-2.55-10.27-.36-1.64-.81-3.28-1.18-5C41.63,38.14,41.63,38,41.63,37.86Z"/><path class="cls-1" d="M112.09,56.32V45.68c0-.54-.09-.45.45-.45h5.19c.09,0,.09,0,.09.09v2.82h.09l.18-.19a6.83,6.83,0,0,1,.73-1,6.49,6.49,0,0,1,3.91-2.18,13.63,13.63,0,0,1,2-.18,6.77,6.77,0,0,1,3.72,1.27,5.85,5.85,0,0,1,2,2.46c.19.36.19.27.37,0A12.72,12.72,0,0,1,133,46a7.65,7.65,0,0,1,3.91-1.45,8.41,8.41,0,0,1,3.36.36,6.47,6.47,0,0,1,3.46,2.73,8.88,8.88,0,0,1,1.27,3,13.49,13.49,0,0,1,.36,3.27V67c0,.37,0,.37-.36.37h-5.36c-.37,0-.37,0-.37-.37V55.23a7.83,7.83,0,0,0-.18-2.09,11.12,11.12,0,0,0-.45-1.64,9.89,9.89,0,0,0-.55-.91,3.18,3.18,0,0,0-2.27-1.09,3.79,3.79,0,0,0-3.91,3.09,8.09,8.09,0,0,0-.18,1.46V67.14c0,.18,0,.18-.19.18h-5.72a.09.09,0,0,1-.09-.09V54.68a16,16,0,0,0-.19-2.18,4.76,4.76,0,0,0-.54-1.45,3.08,3.08,0,0,0-2.73-1.55,3.54,3.54,0,0,0-2.45.91,4.78,4.78,0,0,0-1.64,3.36V67.14c0,.09-.09.09-.18.09h-5.55c-.36,0-.36,0-.36-.37Z"/><path class="cls-1" d="M167.09,58.77v5a21.27,21.27,0,0,0,.27,3.37v.09c0,.27,0,.27-.18.36a9.17,9.17,0,0,1-2.27.27,4.6,4.6,0,0,1-1.09-.18,3.39,3.39,0,0,1-2.27-2.18c-.19-.36-.09-.45-.46-.09a6.94,6.94,0,0,1-3.73,2.27,7.63,7.63,0,0,1-3.54.27A7.09,7.09,0,0,1,150,66.41a6.28,6.28,0,0,1-2.18-4,8.2,8.2,0,0,1,.36-3.91,6.87,6.87,0,0,1,2.46-3.09,10,10,0,0,1,3.09-1.55,14.7,14.7,0,0,1,3.45-.72,21.07,21.07,0,0,1,3.46-.19h.09c.18,0,.18,0,.18-.18a3.16,3.16,0,0,0-.09-.91,2.85,2.85,0,0,0-1.91-2.27,6.93,6.93,0,0,0-1.46-.36,10.41,10.41,0,0,0-3.36.27,13.66,13.66,0,0,0-3.36,1.27.09.09,0,0,0-.09.09h-.09a.31.31,0,0,0-.1-.18c-.36-1.18-.63-2.27-1-3.45V47c0-.09,0-.18.1-.18s.18-.09.36-.18a13.6,13.6,0,0,1,3.73-1.27,20,20,0,0,1,4.72-.46,10.53,10.53,0,0,1,3.37.55,7.38,7.38,0,0,1,4.91,4.91,15.13,15.13,0,0,1,.54,2.91,22.25,22.25,0,0,1,0,2.45c-.09.91-.09,1.91-.09,3ZM161,58.5h0V57.05c0-.37,0-.37-.36-.37h-.18a7.9,7.9,0,0,0-1.46.09,9.54,9.54,0,0,0-2.27.46,4.88,4.88,0,0,0-1.55.72A3.34,3.34,0,0,0,154,59.68a3.53,3.53,0,0,0-.09,1.37,2.52,2.52,0,0,0,2.18,2.36,4.39,4.39,0,0,0,3.64-.91,3.58,3.58,0,0,0,1.36-2.91A4.11,4.11,0,0,1,161,58.5Z"/><path class="cls-1" d="M81.27,50.77a.31.31,0,0,0-.09-.18c-.37-1.18-.73-2.36-1-3.55,0-.09,0-.09-.09-.18s0-.09.09-.18.27-.09.36-.18A21.67,21.67,0,0,1,84,45.23a18.4,18.4,0,0,1,5-.46,10.11,10.11,0,0,1,3.27.55,7.23,7.23,0,0,1,5,5.09,10,10,0,0,1,.45,2.36,9,9,0,0,1,.1,1.64v8.45c0,1.09.09,2.09.18,3.09a9.2,9.2,0,0,0,.18,1.46c0,.09,0,.18-.09.18l-1.18.27a5,5,0,0,1-2-.09,4,4,0,0,1-2.55-2.18c0-.09-.09-.18-.09-.27s-.09-.09-.18,0l-.82.82a7.87,7.87,0,0,1-3.64,1.72,10,10,0,0,1-2.91.19,6.62,6.62,0,0,1-6.09-5.91A8.89,8.89,0,0,1,79,58.68a7,7,0,0,1,2.63-3.36,12.93,12.93,0,0,1,3.19-1.55A13.27,13.27,0,0,1,88,53.14,21,21,0,0,1,91.45,53h.09c.18,0,.18,0,.18-.18v-.54a2.41,2.41,0,0,0-.27-1.09A3.2,3.2,0,0,0,90,49.68a6.14,6.14,0,0,0-1.73-.45,11.36,11.36,0,0,0-6.64,1.54C81.45,50.68,81.36,50.68,81.27,50.77Zm10.55,7.64h0V56.86c0-.09,0-.09-.1-.09h-.27a12.4,12.4,0,0,0-1.82.09,9.54,9.54,0,0,0-2.18.46,4.52,4.52,0,0,0-1.73.91A3.22,3.22,0,0,0,84.63,60a4,4,0,0,0,0,1.46,2.68,2.68,0,0,0,1.82,2.09,5,5,0,0,0,2,.09,3.86,3.86,0,0,0,3.27-3.91A6.26,6.26,0,0,0,91.82,58.41Z"/><path class="cls-1" d="M197.55,62.68c.09.09,0,.18,0,.27,0,1.37.09,2.73.09,4.1v.18c0,.18,0,.18-.18.27a9.44,9.44,0,0,1-1.28.36,10.71,10.71,0,0,1-2.45.28,9.15,9.15,0,0,1-3.18-.46,5.25,5.25,0,0,1-3.28-3.36,7.94,7.94,0,0,1-.45-2.09,24.28,24.28,0,0,1-.18-2.55V38.5c0-.55-.09-.46.45-.46h5.09c.46,0,.37-.09.37.37V44.5c0,.54-.09.45.45.45h4.55c.09,0,.18,0,.18.19v5.27c0,.18,0,.18-.18.18h-4.82c-.09,0-.18,0-.18.18v8.09a11.08,11.08,0,0,0,.09,1.73,2.69,2.69,0,0,0,.18.82A2.27,2.27,0,0,0,195,63.05a8.43,8.43,0,0,0,2.18-.19c.09-.18.19-.18.37-.18Z"/><path class="cls-1" d="M107.82,52.68V67.41c0,.09,0,.09-.09.09h-5.55c-.36,0-.36,0-.36-.27V38.41c0-.55-.09-.46.45-.46h5.46c.09,0,.09,0,.09.09V52.68Z"/><path class="cls-1" d="M184.09,50.68c-.27,0-.45-.09-.72-.09a6.91,6.91,0,0,0-2.37.09,4.36,4.36,0,0,0-3.45,3.55,6.5,6.5,0,0,0-.19,1.91V67c0,.64.1.55-.54.55h-5.27c-.46,0-.37,0-.37-.36V45.68c0-.45,0-.36.46-.45h4.72c.37,0,.37,0,.37.36v3.82a.09.09,0,0,0,.09.09h.09a.33.33,0,0,0,.09-.27,6.11,6.11,0,0,1,1.27-2.09A7.18,7.18,0,0,1,181.91,45a4.47,4.47,0,0,1,2.18,0h.18a.09.09,0,0,1,.1.09v5.37C184.09,50.41,184.18,50.59,184.09,50.68Z"/><path class="cls-1" d="M93,79.86c-.09,0-.09.1-.09.1-.09.72-.19,1.36-.28,2.09-.09.91-.27,1.72-.36,2.63a23,23,0,0,1-.45,2.64v.18c-.1.27-.19.36-.46.36H89.45c-.18,0-.27-.18-.27-.36v-.36c.36-2.09.73-4.09,1.09-6.18s.73-4,1.09-6c.09-.46.18-.82.27-1.28.09-.27.09-.36.37-.36.54,0,.54,0,.82.45,1.36,3,2.81,6,4.18,9.09.09.1.09.28.18.37a.47.47,0,0,0,.18-.37c1-2.09,2-4.27,3-6.36.46-.91.82-1.82,1.27-2.64,0-.09.1-.18.1-.27s.18-.18.36-.18h.36a.39.39,0,0,1,.37.27,2.06,2.06,0,0,1,.09.73c.36,2.27.82,4.55,1.18,6.82.36,2,.73,4,1.09,6v.36a.24.24,0,0,1-.27.27H103c-.27,0-.37-.18-.46-.36s-.09-.54-.18-.91c-.18-1-.36-2.09-.45-3.09s-.28-2-.46-3c0-.18-.09-.36-.09-.54,0,0,0-.1-.09,0h-.09c-.09.09-.09.27-.18.36l-3.28,7.36c-.09.37-.09.46-.63.46a.5.5,0,0,1-.55-.37,11.83,11.83,0,0,0-.72-1.54c-.91-2-1.82-4.09-2.73-6.09C93.18,80.05,93.09,80,93,79.86Z"/><path class="cls-1" d="M237.19,58.23a3.24,3.24,0,0,1,1.45-2.55c.18-.09.46-.18.64-.27a.94.94,0,0,1,.82.18c.63.27,1.27.64,1.9.91,3,1.36,6,2.82,9,4.18.28.09.55.27.82.37A1.89,1.89,0,0,1,253,62.59a3.64,3.64,0,0,1-.18,2A4.42,4.42,0,0,1,250.91,67a2.9,2.9,0,0,1-1.27.46,2.53,2.53,0,0,1-1.18-.27c-.46-.37-.91-.64-1.36-1-3.1-2.19-6.19-4.37-9.28-6.46A1.33,1.33,0,0,1,237.19,58.23Z"/><path class="cls-1" d="M207.55,63.32a3.38,3.38,0,0,1,.27-1.37,1.79,1.79,0,0,1,.82-.81c1.64-.73,3.27-1.55,5-2.28l3.54-1.63c1.1-.55,2.28-1,3.37-1.55a1.74,1.74,0,0,1,1.18-.09,2.45,2.45,0,0,1,1.09.82,3.4,3.4,0,0,1,.73,2.09,1.39,1.39,0,0,1-.64,1.18c-1.27.91-2.63,1.82-3.91,2.73-2.27,1.54-4.45,3.09-6.72,4.73a2,2,0,0,1-1.73.27,3.55,3.55,0,0,1-1.73-1.09,5.48,5.48,0,0,1-1.27-2.64Z"/><path class="cls-1" d="M207.55,42.23a4.39,4.39,0,0,1,.54-2.19,3.79,3.79,0,0,1,1.64-1.72,2.68,2.68,0,0,1,1.45-.46,1.33,1.33,0,0,1,1,.37c.82.63,1.73,1.18,2.55,1.81,1.82,1.28,3.55,2.46,5.36,3.73.91.64,1.91,1.37,2.82,2a1.66,1.66,0,0,1,.64,1.09,3.15,3.15,0,0,1-1.46,2.82,1.52,1.52,0,0,1-.9.27,1.16,1.16,0,0,1-.55-.09c-1.09-.54-2.18-1-3.18-1.45-2.82-1.27-5.64-2.64-8.46-3.91a.09.09,0,0,1-.09-.09A1.86,1.86,0,0,1,207.82,43,2.65,2.65,0,0,1,207.55,42.23Z"/><path class="cls-1" d="M237.19,47a1,1,0,0,1,.09-.45,1.33,1.33,0,0,1,.54-.82c1.09-.73,2.18-1.54,3.28-2.27,2.45-1.73,4.81-3.37,7.27-5.09h.09a2,2,0,0,1,1.91-.28,6.28,6.28,0,0,1,1.27.73,4.87,4.87,0,0,1,1.55,3,2.65,2.65,0,0,1-.19,1.46,1.68,1.68,0,0,1-.9,1c-1.64.72-3.28,1.54-4.82,2.27-1.28.64-2.55,1.18-3.91,1.82-1.09.45-2.09,1-3.18,1.45a1.33,1.33,0,0,1-1,.09,1.88,1.88,0,0,1-1-.63A2.92,2.92,0,0,1,237.19,47Z"/><path class="cls-1" d="M230.37,78.23a4.1,4.1,0,0,1-1.91-.37,2.43,2.43,0,0,1-1.09-.81,1.5,1.5,0,0,1-.46-1.37c0-.45.09-1,.09-1.45,0-.27.09-.64.09-.91.1-.73.1-1.36.19-2.09s.09-1.37.18-2c0-.37.09-.73.09-1.09.09-.73.09-1.46.18-2.19,0-.36.09-.72.09-1.09a19.11,19.11,0,0,0,.18-2.27,1.4,1.4,0,0,1,.55-1,1.79,1.79,0,0,1,.73-.36,2.77,2.77,0,0,1,2.27.09,2.09,2.09,0,0,1,.73.45,1.69,1.69,0,0,1,.36.82,9.1,9.1,0,0,0,.18,1.55c.09.63.09,1.36.18,2,0,.27.09.63.09.91.1.72.1,1.36.19,2.09s.09,1.27.18,2c0,.36.09.63.09,1,.09.72.09,1.36.18,2.09,0,.45.09,1,.09,1.45a1.76,1.76,0,0,1-.54,1.46,3.78,3.78,0,0,1-1.64.91A7.16,7.16,0,0,1,230.37,78.23Z"/><path class="cls-1" d="M130.09,82.86c.09.19.27.28.36.46,1.09,1.27,2.19,2.45,3.37,3.73l.27.27c.18.27.09.54-.27.64h-1.91a.85.85,0,0,1-.64-.28c-1.09-1.27-2.09-2.54-3.18-3.82l-.27-.27a.33.33,0,0,0-.09.27V87.5a.44.44,0,0,1-.46.46h-1.54c-.37,0-.46-.19-.55-.46V74.05a.43.43,0,0,1,.46-.46h1.54c.36,0,.46.18.55.55v7.91h.09l.27-.28c.91-.91,1.82-1.81,2.64-2.72l.27-.28a1,1,0,0,1,.73-.27h1.81c.37.09.46.36.28.64l-.28.27c-1.09,1.09-2.18,2.09-3.27,3.18C130.18,82.59,130.09,82.68,130.09,82.86Z"/><path class="cls-1" d="M137.27,83.68a1.77,1.77,0,0,0,.37,1.18,2.23,2.23,0,0,0,1.9,1,3.33,3.33,0,0,0,2-.63c.09-.09.18-.18.27-.18s.27,0,.36.09l.09.09.82,1.09.09.09c.09.09,0,.27-.09.36l-.18.19a5.31,5.31,0,0,1-5,1,4.3,4.3,0,0,1-3-3.1,5,5,0,0,1,.73-4.63,4.61,4.61,0,0,1,4-1.91,4.34,4.34,0,0,1,2.18.64,4,4,0,0,1,1.82,2.81,6.57,6.57,0,0,1,.09,1.28v.18c-.09.27-.18.45-.55.45h-5.64S137.36,83.59,137.27,83.68ZM141.18,82a1.55,1.55,0,0,0-1.09-1.46,2.29,2.29,0,0,0-1.73.09,1.64,1.64,0,0,0-.91,1.09.36.36,0,0,1-.09.28.09.09,0,0,0,.09.09H141C141,82,141.09,82,141.18,82Z"/><path class="cls-1" d="M195.37,83.68h-2.91c-.19,0-.19,0-.19.18a.51.51,0,0,0,.1.37,2.13,2.13,0,0,0,1.72,1.54,2.76,2.76,0,0,0,2.37-.54c.09-.09.18-.09.27-.18.27-.09.36-.09.54.09l.1.09c.18.27.45.54.63.82s.27.54-.09.81a5.79,5.79,0,0,1-2,1,6.3,6.3,0,0,1-2.64.1,4.73,4.73,0,0,1-2.72-1.82,5.16,5.16,0,0,1,.09-6.09,4.38,4.38,0,0,1,3.91-1.82,3.57,3.57,0,0,1,1.63.36,4.06,4.06,0,0,1,2.46,3.09,7,7,0,0,1,.09,1.37v.27c-.09.18-.18.36-.46.36h-2.9ZM192.46,82h3.81a1.65,1.65,0,0,0-.9-1.37,2.29,2.29,0,0,0-2.28.18A1.72,1.72,0,0,0,192.46,82Z"/><path class="cls-1" d="M177.91,84.59v3c0,.27-.18.37-.45.46a1.43,1.43,0,0,1-1.37-.73c0-.09-.09-.09-.09-.18s-.09-.09-.09,0-.18.09-.27.18a4.5,4.5,0,0,1-3.55.73A2.61,2.61,0,0,1,170,85.77a3,3,0,0,1,0-1.27,2.73,2.73,0,0,1,1.18-1.82,3.31,3.31,0,0,1,1.64-.63,5.48,5.48,0,0,1,2.45.09h.19c.09,0,.09,0,.09-.09a1.49,1.49,0,0,0-1.28-1.55,2.49,2.49,0,0,0-.81-.09,9.8,9.8,0,0,0-1.73.27h-.09c-.37.09-.55,0-.64-.36s-.09-.46-.18-.73c0-.09-.09-.27-.09-.36-.09-.37,0-.46.36-.55a7.7,7.7,0,0,1,1.37-.36,8.13,8.13,0,0,1,2.09-.09,3,3,0,0,1,1.27.36,3.34,3.34,0,0,1,1.82,2,7,7,0,0,1,.27,1.91Zm-2.45,0v-.54c0-.19,0-.19-.19-.28a3.83,3.83,0,0,0-1-.18,2.34,2.34,0,0,0-1.09.18,1.32,1.32,0,0,0-.72.82.92.92,0,0,0,0,.73,1.08,1.08,0,0,0,.81.82,1.9,1.9,0,0,0,2-.73.54.54,0,0,0,.09-.36A3.4,3.4,0,0,1,175.46,84.59Z"/><path class="cls-1" d="M114.63,84.59V87.5a.42.42,0,0,1-.36.46,1.65,1.65,0,0,1-1.36-.64c-.09-.09-.09-.27-.18-.27s-.19.09-.28.18a4,4,0,0,1-3.63.73,2.72,2.72,0,0,1-2.09-2.19,2.47,2.47,0,0,1,0-1.45,2.23,2.23,0,0,1,1-1.55,3.23,3.23,0,0,1,1.72-.72,5.53,5.53,0,0,1,2.46.09c.09,0,.18,0,.18.09s.09,0,.09-.09a1.48,1.48,0,0,0-1.27-1.55,2.58,2.58,0,0,0-.82-.09l-1.73.27c-.09,0-.18,0-.18.09a.42.42,0,0,1-.45-.27c0-.09-.1-.18-.1-.36s-.09-.55-.18-.82v-.27c0-.18.09-.37.28-.37a1.67,1.67,0,0,1,.63-.18,7.53,7.53,0,0,1,2.82-.27,5.28,5.28,0,0,1,1.27.27,3.22,3.22,0,0,1,1.91,2.27,7.15,7.15,0,0,1,.18,1.37A20.69,20.69,0,0,1,114.63,84.59Zm-2.45-.09V84c0-.1-.09-.19-.18-.28a4.71,4.71,0,0,0-1.18-.18,2,2,0,0,0-1,.18,1.17,1.17,0,0,0-.82,1.09v.28a1.26,1.26,0,0,0,.91,1.09,2.33,2.33,0,0,0,2.18-.73c.09-.09.09-.18.09-.36Z"/><path class="cls-1" d="M146.36,83v-2.1a.09.09,0,0,0-.09-.09h-.72a.43.43,0,0,1-.46-.45V78.86a.33.33,0,0,1,.36-.36h.73c.18,0,.18,0,.18-.18V76.05c0-.37.19-.64.55-.55h1.64a.39.39,0,0,1,.36.36v2.46c0,.18,0,.18.18.18h1.82c.45,0,.64.18.64.64v1.27c0,.27-.19.36-.46.45h-2.18c-.09,0-.09,0-.09.1v3.63a1.18,1.18,0,0,0,.09.55.88.88,0,0,0,.91.72,3.3,3.3,0,0,0,1-.18c.09,0,.18-.09.27-.09a.52.52,0,0,1,.46.27c.09.46.18.91.27,1.28a.5.5,0,0,1-.18.45c-.09.09-.19.09-.28.18a4.71,4.71,0,0,1-2.72.37,2.65,2.65,0,0,1-2.19-1.91,3.6,3.6,0,0,1-.18-1.37A14.08,14.08,0,0,0,146.36,83Z"/><path class="cls-1" d="M184.82,78.23a4.76,4.76,0,0,1,3.55,1.54c.18.19.18.37,0,.64-.1.09-.1.18-.19.18a5.87,5.87,0,0,0-.72.82c-.19.18-.28.18-.46,0l-.27-.27a2.11,2.11,0,0,0-1-.55,2.54,2.54,0,0,0-3.18,2.09,2.83,2.83,0,0,0,.27,1.73,2.47,2.47,0,0,0,3.73.73c.09-.09.27-.18.36-.37l.18-.18a.45.45,0,0,1,.64,0c.27.27.64.55.91.82a.09.09,0,0,1,.09.09c.09.18.18.36,0,.55,0,.09-.09.09-.09.18A4.07,4.07,0,0,1,186,88a4.65,4.65,0,0,1-3.63-.64A4.94,4.94,0,0,1,181,80.05a4.93,4.93,0,0,1,3.55-1.91C184.55,78.23,184.64,78.23,184.82,78.23Z"/><path class="cls-1" d="M165.36,80.68V74c0-.28.19-.37.46-.46h1.64a.49.49,0,0,1,.45.27V87.41c0,.27-.18.36-.45.45h-1.82a.48.48,0,0,1-.46-.45v-.27C165.36,85.05,165.36,82.86,165.36,80.68Z"/><path class="cls-1" d="M119.18,79.59l.27-.27a3.76,3.76,0,0,1,1.64-1,4.57,4.57,0,0,1,1.91.09.68.68,0,0,1,.36.18c.28.18.28.37.18.64,0,.09,0,.09-.09.09l-.54,1.09a.31.31,0,0,1-.09.18c-.09.09-.28.18-.37.09s-.18-.09-.27-.09a2.45,2.45,0,0,0-2.09.37l-.18.18a.79.79,0,0,0-.28.54v5.73c0,.27-.09.36-.36.36h-1.73c-.27,0-.36-.18-.45-.45V78.68a.43.43,0,0,1,.45-.45,1.39,1.39,0,0,1,1.28.63c.09.1.09.19.18.37S119.18,79.41,119.18,79.59Z"/><path class="cls-1" d="M256.91,66.5c.28.18.28.55.37.91a.09.09,0,0,1-.09.09c-.19,0-.37,0-.37-.18a.33.33,0,0,0-.09-.27c-.09-.28-.18-.37-.45-.37h-.18c-.1,0-.19,0-.19.09v.55c0,.09-.09.09-.18.09s-.27,0-.27-.18V65.59c0-.18,0-.18.18-.18a1.57,1.57,0,0,1,.91,0A.57.57,0,0,1,257,66a.47.47,0,0,1-.18.37C257,66.41,256.91,66.41,256.91,66.5Zm-.91-.45h0c0,.27,0,.27.28.27a.81.81,0,0,0,.45-.09c.18-.09.09-.37-.09-.46s-.18-.09-.27-.09C256.1,65.68,256,65.77,256,66.05Z"/></svg>