<?xml version="1.0" encoding="utf-8"?>
<!-- Generator: Adobe Illustrator 24.2.3, SVG Export Plug-In . SVG Version: 6.00 Build 0)  -->
<svg version="1.1" id="Layer_1" xmlns="http://www.w3.org/2000/svg" xmlns:xlink="http://www.w3.org/1999/xlink" x="0px" y="0px"
	 viewBox="0 0 150 60" style="enable-background:new 0 0 150 60;" xml:space="preserve">
<style type="text/css">
	.st0{fill-rule:evenodd;clip-rule:evenodd;fill:#FFFFFF;}
	.st1{fill:#FFFFFF;}
</style>
<g>
	<g>
		<path class="st0" d="M43.14,23.61c-0.83,0.3-1.33,1.09-1.76,1.81c-0.93,1.65-1.16,3.77-0.32,5.5c0.23,0.48,0.63,0.96,1.2,0.99
			c0.62,0.02,1.16-0.37,1.59-0.78c0.94-0.93,1.37-2.25,1.52-3.54c0.15-1.2-0.05-2.5-0.75-3.51C44.31,23.61,43.68,23.41,43.14,23.61z
			"/>
		<path class="st0" d="M30.44,23.6c-0.76,0.25-1.24,0.95-1.65,1.6c-1.02,1.65-1.32,3.83-0.5,5.62c0.22,0.47,0.57,0.97,1.11,1.07
			c0.58,0.1,1.13-0.24,1.55-0.6c0.94-0.8,1.4-2.01,1.63-3.19c0.25-1.35,0.12-2.84-0.67-4C31.6,23.63,30.97,23.41,30.44,23.6z"/>
		<path class="st0" d="M49.86,16.42c-0.86-0.79-2.03-1.22-3.2-1.2c-13.46,0-26.92,0-40.39,0c-1.79,0-3.5,1.16-4.18,2.81
			c-0.31,0.7-0.38,1.48-0.36,2.24c0.01,5.05-0.01,10.11,0.01,15.16c0.01,2.33,2.04,4.41,4.37,4.47c6.46,0.04,12.92-0.02,19.38,0.03
			c2.94,1.58,5.84,3.24,8.76,4.85c-0.66-1.63-1.33-3.25-1.99-4.88c4.91-0.01,9.82,0.01,14.73-0.01c2.33-0.06,4.37-2.14,4.38-4.48
			c0.02-5.16,0-10.32,0.01-15.48C51.41,18.62,50.84,17.3,49.86,16.42z M22.05,35.74c0.04,0.75-0.32,1.67-1.13,1.85
			c-0.77,0.17-1.46-0.33-1.94-0.87c-2.2-2.36-3.44-5.43-4.34-8.48c-0.91,1.79-1.82,3.58-2.7,5.38c-0.62,1.22-1.27,2.46-2.25,3.43
			c-0.42,0.41-1.12,0.78-1.65,0.36c-0.81-0.71-1-1.83-1.35-2.79c-1.3-4.48-2.03-9.09-2.79-13.68c-0.17-0.77,0.15-1.68,0.91-1.99
			c0.62-0.23,1.41-0.26,1.93,0.19c0.37,0.33,0.47,0.83,0.54,1.3c0.53,3.55,1.16,7.1,2.02,10.59c1.47-2.79,2.93-5.58,4.4-8.37
			c0.22-0.41,0.48-0.82,0.88-1.07c0.54-0.34,1.33-0.32,1.78,0.16c0.38,0.39,0.5,0.94,0.61,1.46c0.44,2.31,1.03,4.59,1.89,6.78
			c0.37-3.3,0.83-6.63,2.03-9.74c0.27-0.63,0.51-1.29,0.95-1.82c0.75-0.79,2.16-0.54,2.71,0.36c0.3,0.47,0.32,1.1,0.08,1.6
			c-1.04,2.04-1.47,4.31-1.87,6.55C22.29,29.83,21.9,32.78,22.05,35.74z M34.81,31.84c-0.61,1.13-1.4,2.21-2.52,2.88
			c-1.64,1-3.84,0.87-5.43-0.18c-1.27-0.87-1.98-2.35-2.27-3.82C24,27.38,25,23.67,27.52,21.34c0.72-0.63,1.63-1.05,2.58-1.16
			c1.58-0.19,3.29,0.33,4.37,1.54c0.88,0.99,1.37,2.29,1.54,3.59C36.28,27.53,35.88,29.86,34.81,31.84z M47.56,31.78
			c-0.62,1.16-1.43,2.28-2.58,2.95c-1.58,0.94-3.66,0.86-5.22-0.07c-1.06-0.64-1.76-1.72-2.16-2.86c-1.11-3.49-0.17-7.59,2.38-10.22
			c0.77-0.75,1.76-1.27,2.83-1.4c1.55-0.19,3.23,0.28,4.31,1.44c0.97,1.05,1.49,2.44,1.64,3.85C48.98,27.62,48.59,29.86,47.56,31.78
			z"/>
	</g>
	<path class="st0" d="M59.74,20.63c1.35-0.3,2.77-0.26,4.11,0.06c0,1.1,0,2.2,0,3.3c-1.1-0.27-2.34-0.51-3.41,0
		c-1.28,0.63-1.98,2.07-1.99,3.45c-0.07,1.38,0.39,2.91,1.61,3.69c1.12,0.74,2.56,0.58,3.79,0.23c0,1.1,0,2.2,0,3.3
		c-1.63,0.47-3.41,0.41-5-0.18c-1.91-0.72-3.43-2.36-4.01-4.32c-0.44-1.48-0.5-3.09-0.14-4.59C55.28,23.15,57.32,21.17,59.74,20.63
		L59.74,20.63z M69.66,20.47c1.66-0.19,3.47,0.07,4.81,1.14c1.29,1,1.94,2.63,2.17,4.21c0.23,1.73,0.18,3.54-0.36,5.21
		c-0.46,1.42-1.41,2.74-2.78,3.38c-1.4,0.66-3.03,0.7-4.51,0.37c-1.38-0.31-2.59-1.22-3.27-2.46c-0.95-1.66-1.12-3.64-1.05-5.51
		c0.08-1.62,0.49-3.31,1.57-4.55C67.09,21.24,68.35,20.62,69.66,20.47L69.66,20.47z M70.17,23.62c-0.71,0.18-1.12,0.88-1.3,1.55
		c-0.35,1.31-0.29,2.69-0.2,4.03c0.09,0.72,0.16,1.53,0.68,2.09c0.69,0.78,2.06,0.67,2.69-0.12c0.42-0.51,0.52-1.19,0.62-1.82
		c0.13-1.13,0.17-2.28,0-3.41c-0.12-0.68-0.31-1.39-0.8-1.89C71.43,23.61,70.76,23.47,70.17,23.62L70.17,23.62z M135.31,20.69
		c1.41-0.37,2.9-0.32,4.32-0.01c0.03,1.1,0.01,2.21,0.01,3.31c-1.08-0.26-2.27-0.5-3.33-0.04c-1.21,0.55-1.95,1.86-2.05,3.16
		c-0.15,1.46,0.25,3.14,1.54,3.99c1.13,0.78,2.59,0.62,3.83,0.26c-0.01,1.11,0.03,2.22-0.03,3.32c-1.74,0.45-3.63,0.39-5.28-0.33
		c-1.82-0.79-3.23-2.43-3.75-4.34c-0.4-1.47-0.45-3.04-0.08-4.52C131.1,23.18,133.02,21.29,135.31,20.69L135.31,20.69z M78.83,20.8
		c1.57,0,3.14,0,4.71,0c0.57,2.55,1.11,5.1,1.58,7.67c0.45-2.58,1.05-5.12,1.66-7.67c1.61,0,3.22,0,4.83,0
		c0.63,4.61,1.25,9.22,1.87,13.83c-1.23,0-2.46,0-3.7,0c-0.34-3.16-0.64-6.32-1.01-9.47c-0.75,3.16-1.54,6.31-2.3,9.47
		c-0.84,0-1.68,0-2.52,0c-0.81-3.16-1.6-6.33-2.41-9.49c-0.32,3.16-0.63,6.33-0.95,9.49c-1.18,0-2.36,0-3.53,0
		C77.65,30.02,78.24,25.41,78.83,20.8L78.83,20.8z M95.73,20.8c1.57,0,3.14,0,4.72,0c0.57,2.54,1.1,5.09,1.58,7.66
		c0.46-2.57,1.05-5.12,1.66-7.66c1.6,0,3.21,0,4.81,0c0.62,4.61,1.25,9.22,1.87,13.83c-1.23,0-2.46,0-3.69,0
		c-0.34-3.16-0.66-6.32-1-9.48c-0.77,3.16-1.52,6.32-2.29,9.48c-0.84,0-1.68,0-2.52,0c-0.81-3.17-1.61-6.33-2.41-9.5
		c-0.32,3.17-0.63,6.33-0.95,9.5c-1.18,0-2.36,0-3.54,0C94.55,30.02,95.14,25.41,95.73,20.8L95.73,20.8z M111.42,20.84
		c2.52-0.06,5.05-0.01,7.57-0.02c0,0.98,0,1.96,0,2.94c-1.27,0.01-2.55,0-3.82,0.01c0,0.84,0,1.69,0,2.53c1.1,0,2.2,0,3.31,0
		c0,0.96,0,1.91,0,2.86c-1.1,0-2.2,0-3.31,0c0,0.84,0,1.69,0,2.53c1.28,0,2.56,0,3.84,0c0,0.98,0,1.96,0,2.95c-2.52,0-5.05,0-7.57,0
		C111.43,30.05,111.47,25.44,111.42,20.84L111.42,20.84z M120.08,20.8c1.58,0.01,3.16-0.01,4.74,0.01c1.49,0.05,3.07,0.42,4.18,1.47
		c1,0.93,1.35,2.46,0.96,3.75c-0.31,1.06-1.1,1.91-2.09,2.37c0.99,2.08,1.99,4.15,2.98,6.22c-1.31,0-2.63,0-3.94,0
		c-1.03-2.12-2.03-4.25-3.07-6.36c-0.03,2.12,0,4.24-0.01,6.36c-1.25,0-2.49,0-3.74,0C120.08,30.02,120.08,25.41,120.08,20.8
		L120.08,20.8z M123.8,23.46c0,1.1,0,2.2,0,3.3c0.68-0.05,1.41-0.07,1.99-0.48c0.66-0.48,0.59-1.5,0.17-2.11
		C125.45,23.53,124.55,23.52,123.8,23.46L123.8,23.46z M140.7,20.8c2.52-0.01,5.04,0,7.56,0c0,0.98,0,1.97,0,2.95
		c-1.28,0-2.56,0-3.83,0c0,0.84,0,1.68,0,2.53c1.1,0,2.2,0,3.31,0c0,0.96,0,1.91,0,2.87c-1.1,0-2.2,0-3.3,0c0,0.84,0,1.69,0,2.53
		c1.28,0,2.57,0,3.85,0c0,0.98,0,1.96,0,2.95c-2.52,0-5.05,0-7.57,0C140.7,30.02,140.7,25.41,140.7,20.8L140.7,20.8z"/>
</g>
</svg>
